<?xml version="1.0" encoding="UTF-8"?>
<svg id="_Слой_2" data-name="Слой 2" xmlns="http://www.w3.org/2000/svg" viewBox="0 0 16.53 17.63">
  <defs>
    <style>
      .cls-1 {
        fill: #1f3b90;
      }
    </style>
  </defs>
  <g id="_Слой_1-2" data-name="Слой 1">
    <path class="cls-1" d="m2.2,0C.99,0,0,.99,0,2.2v13.22c0,1.22.99,2.2,2.2,2.2h9.92c1.22,0,2.2-.99,2.2-2.2V2.2c0-1.22-.99-2.2-2.2-2.2H2.2Zm3.86,9.92h2.2c1.52,0,2.75,1.23,2.75,2.75,0,.3-.25.55-.55.55H3.86c-.3,0-.55-.25-.55-.55,0-1.52,1.23-2.75,2.75-2.75Zm-1.1-3.31c0-1.22.99-2.2,2.2-2.2s2.2.99,2.2,2.2-.99,2.2-2.2,2.2-2.2-.99-2.2-2.2Zm11.57-3.86c0-.3-.25-.55-.55-.55s-.55.25-.55.55v2.2c0,.3.25.55.55.55s.55-.25.55-.55v-2.2Zm-.55,3.86c-.3,0-.55.25-.55.55v2.2c0,.3.25.55.55.55s.55-.25.55-.55v-2.2c0-.3-.25-.55-.55-.55Zm.55,4.96c0-.3-.25-.55-.55-.55s-.55.25-.55.55v2.2c0,.3.25.55.55.55s.55-.25.55-.55v-2.2Z"/>
  </g>
</svg>