<?xml version="1.0" encoding="UTF-8"?>
<svg id="_Слой_2" data-name="Слой 2" xmlns="http://www.w3.org/2000/svg" viewBox="0 0 16.48 16.48">
  <defs>
    <style>
      .cls-1 {
        fill: #1f3b90;
      }
    </style>
  </defs>
  <g id="_Слой_1-2" data-name="Слой 1">
    <path class="cls-1" d="m2.35,0C1.06,0,0,1.06,0,2.35v11.77c0,1.3,1.06,2.35,2.35,2.35h11.77c1.3,0,2.35-1.06,2.35-2.35V2.35c0-1.3-1.06-2.35-2.35-2.35H2.35Zm3.34,3.56c.36-.1.73.08.87.43l.74,1.77c.13.3.04.65-.21.85l-.9.74c.61,1.29,1.66,2.34,2.95,2.95l.74-.91c.21-.25.55-.34.85-.21l1.77.74c.34.14.52.51.43.87l-.44,1.62c-.09.32-.38.54-.71.54-4.55,0-8.24-3.69-8.24-8.24,0-.33.22-.62.54-.71l1.62-.44Z"/>
  </g>
</svg>