<?xml version="1.0" encoding="UTF-8"?>
<svg id="_Слой_1" data-name="Слой 1" xmlns="http://www.w3.org/2000/svg" viewBox="0 0 24 24">
  <defs>
    <style>
      .cls-1 {
        fill: #fff;
      }

      .cls-2 {
        fill: #1f3b90;
      }
    </style>
  </defs>
  <path class="cls-1" d="m12,3.47c-3.08,0-5.54,1.4-7.33,3.07-1.78,1.65-2.97,3.63-3.54,4.99-.12.3-.12.63,0,.94.56,1.36,1.76,3.34,3.54,4.99,1.79,1.67,4.26,3.07,7.33,3.07s5.54-1.4,7.33-3.07c1.78-1.66,2.97-3.63,3.54-4.99.12-.3.12-.63,0-.94-.57-1.36-1.76-3.34-3.54-4.99-1.79-1.66-4.26-3.07-7.33-3.07Zm-5.48,8.53c0-3.03,2.45-5.48,5.48-5.48s5.48,2.45,5.48,5.48-2.46,5.48-5.48,5.48-5.48-2.45-5.48-5.48Zm5.48-2.44c0,1.34-1.09,2.44-2.44,2.44-.27,0-.53-.04-.77-.12-.21-.07-.45.06-.45.28.01.26.05.53.12.79.52,1.95,2.53,3.11,4.48,2.58s3.11-2.53,2.58-4.48c-.42-1.58-1.82-2.64-3.37-2.71-.22,0-.35.23-.28.45.08.24.13.49.13.77h0Z"/>
  <path class="cls-2" d="m12,6.52c-3.03,0-5.48,2.45-5.48,5.48s2.45,5.48,5.48,5.48,5.48-2.45,5.48-5.48-2.45-5.48-5.48-5.48Zm.95,9.01c-1.95.52-3.95-.63-4.48-2.58-.07-.26-.11-.53-.12-.79,0-.22.24-.35.45-.28.24.08.5.13.77.13,1.34,0,2.44-1.09,2.44-2.44,0-.27-.04-.53-.13-.77-.07-.21.06-.45.28-.45,1.55.06,2.95,1.13,3.37,2.7.51,1.95-.65,3.96-2.59,4.48Z"/>
</svg>