<?xml version="1.0" encoding="utf-8"?>
<!-- Generator: Adobe Illustrator 27.2.0, SVG Export Plug-In . SVG Version: 6.00 Build 0)  -->
<svg version="1.1" id="Слой_1" xmlns="http://www.w3.org/2000/svg" xmlns:xlink="http://www.w3.org/1999/xlink" x="0px" y="0px"
	 viewBox="0 0 640 512" style="enable-background:new 0 0 640 512;" xml:space="preserve">
<style type="text/css">
	.st0{fill:#FFFFFF;}
</style>
<path class="st0" d="M323.4,85.2l-96.8,78.4c-16.1,13-19.2,36.4-7,53.1c12.9,17.8,38,21.3,55.3,7.8l99.3-77.2c7-5.4,17-4.2,22.5,2.8
	s4.2,17-2.8,22.5L373,188.8l139,128V128h-0.7l-3.9-2.5L434.8,79c-15.3-9.8-33.2-15-51.4-15C361.6,64,340.4,71.5,323.4,85.2z
	 M346.2,209.6l-51.7,40.2c-31.5,24.6-77.2,18.2-100.8-14.2c-22.2-30.5-16.6-73.1,12.7-96.8l83.2-67.3c-11.6-4.9-24.1-7.4-36.8-7.4
	C234,64,215.7,69.6,200,80l-72,48v224h28.2l91.4,83.4c19.6,17.9,49.9,16.5,67.8-3.1c5.5-6.1,9.2-13.2,11.1-20.6l17,15.6
	c19.5,17.9,49.9,16.6,67.8-2.9c4.5-4.9,7.8-10.6,9.9-16.5c19.4,13,45.8,10.3,62.1-7.5c17.9-19.5,16.6-49.9-2.9-67.8L346.2,209.6
	L346.2,209.6z M16,128c-8.8,0-16,7.2-16,16v208c0,17.7,14.3,32,32,32h32c17.7,0,32-14.3,32-32V128H16z M48,320c8.8,0,16,7.2,16,16
	s-7.2,16-16,16s-16-7.2-16-16S39.2,320,48,320z M544,128v224c0,17.7,14.3,32,32,32h32c17.7,0,32-14.3,32-32V144c0-8.8-7.2-16-16-16
	H544z M576,336c0-8.8,7.2-16,16-16s16,7.2,16,16s-7.2,16-16,16S576,344.8,576,336z"/>
</svg>
