<?xml version="1.0" encoding="utf-8"?>
<!-- Generator: Adobe Illustrator 27.2.0, SVG Export Plug-In . SVG Version: 6.00 Build 0)  -->
<svg version="1.1" id="Слой_1" xmlns="http://www.w3.org/2000/svg" xmlns:xlink="http://www.w3.org/1999/xlink" x="0px" y="0px"
	 viewBox="0 0 283 212.2" style="enable-background:new 0 0 283 212.2;" xml:space="preserve">
<style type="text/css">
	.st0{fill:#B42903;}
</style>
<path class="st0" d="M26.5,0C11.9,0,0,11.9,0,26.5c0,8.3,3.9,16.2,10.6,21.2L130.9,138c6.3,4.7,14.9,4.7,21.2,0l120.3-90.2
	c6.7-5,10.6-12.9,10.6-21.2C283,11.9,271.1,0,256.5,0C256.5,0,26.5,0,26.5,0z M0,61.9v115c0,19.5,15.9,35.4,35.4,35.4h212.2
	c19.5,0,35.4-15.9,35.4-35.4v-115l-120.3,90.2c-12.6,9.5-29.8,9.5-42.4,0L0,61.9z"/>
</svg>
