<?xml version="1.0" encoding="utf-8"?>
<!-- Generator: Adobe Illustrator 26.0.1, SVG Export Plug-In . SVG Version: 6.00 Build 0)  -->
<svg version="1.1" id="Слой_1" xmlns="http://www.w3.org/2000/svg" xmlns:xlink="http://www.w3.org/1999/xlink" x="0px" y="0px"
	 viewBox="0 0 192 512" style="enable-background:new 0 0 192 512;" xml:space="preserve">
<style type="text/css">
	.st0{fill:#B42903;}
</style>
<path class="st0" d="M144,80c0,26.5-21.5,48-48,48s-48-21.5-48-48s21.5-48,48-48S144,53.5,144,80z M0,224c0-17.7,14.3-32,32-32h64
	c17.7,0,32,14.3,32,32v224h32c17.7,0,32,14.3,32,32s-14.3,32-32,32H32c-17.7,0-32-14.3-32-32s14.3-32,32-32h32V256H32
	C14.3,256,0,241.7,0,224z"/>
</svg>
