<?xml version="1.0" encoding="utf-8"?>
<!-- Generator: Adobe Illustrator 27.2.0, SVG Export Plug-In . SVG Version: 6.00 Build 0)  -->
<svg version="1.1" id="Слой_1" xmlns="http://www.w3.org/2000/svg" xmlns:xlink="http://www.w3.org/1999/xlink" x="0px" y="0px"
	 viewBox="0 0 512 512" style="enable-background:new 0 0 512 512;" xml:space="preserve">
<style type="text/css">
	.st0{fill:#FFFFFF;}
</style>
<path class="st0" d="M211,7.3c-6-6.3-15-8.7-23.4-6.5s-14.9,8.9-17.1,17.3l-15.8,62.5l-62-17.5c-8.4-2.4-17.4,0-23.5,6.1
	s-8.5,15.1-6.1,23.5l17.5,62l-62.5,15.9c-8.4,2.1-15,8.7-17.3,17.1S1,205,7.3,211l46.2,45L7.3,301c-6.3,6-8.7,15-6.5,23.4
	s8.9,14.9,17.3,17.1l62.5,15.8l-17.5,62c-2.4,8.4,0,17.4,6.1,23.5s15.1,8.5,23.5,6.1l62-17.5l15.8,62.5c2.1,8.4,8.7,15,17.1,17.3
	c8.4,2.3,17.3-0.2,23.4-6.4l45-46.2l45,46.2c6.1,6.2,15,8.7,23.4,6.4s14.9-8.9,17.1-17.3l15.8-62.5l62,17.5c8.4,2.4,17.4,0,23.5-6.1
	s8.5-15.1,6.1-23.5l-17.5-62l62.5-15.8c8.4-2.1,15-8.7,17.3-17.1c2.3-8.4-0.2-17.3-6.4-23.4l-46.2-45l46.2-45
	c6.2-6.1,8.7-15,6.4-23.4s-8.9-14.9-17.3-17.1l-62.5-15.8l17.5-62c2.4-8.4,0-17.4-6.1-23.5s-15.1-8.5-23.5-6.1l-62,17.5l-15.9-62.5
	c-2.1-8.4-8.7-15-17.1-17.3S307,1,301,7.3l-45,46.2L211,7.3z"/>
</svg>
