<?xml version="1.0" encoding="UTF-8"?>
<svg id="_Слой_1" data-name="Слой 1" xmlns="http://www.w3.org/2000/svg" viewBox="0 0 60 60">
  <defs>
    <style>
      .cls-1 {
        fill: #fff;
      }
    </style>
  </defs>
  <path class="cls-1" d="m15,7.5c0-4.14,3.36-7.5,7.5-7.5h18.75v15c0,2.07,1.68,3.75,3.75,3.75h15v33.75c0,4.14-3.36,7.5-7.5,7.5h-30c-4.14,0-7.5-3.36-7.5-7.5v-13.12h20.4l-4.57,4.57c-1.1,1.1-1.1,2.88,0,3.97s2.88,1.1,3.97,0l9.37-9.37c1.1-1.1,1.1-2.88,0-3.97l-9.37-9.37c-1.1-1.1-2.88-1.1-3.97,0s-1.1,2.88,0,3.97l4.57,4.57H15V7.5Zm0,26.25v5.62H2.81C1.25,39.38,0,38.12,0,36.56s1.25-2.81,2.81-2.81h12.19ZM60,15h-15V0l15,15Z"/>
</svg>