<?xml version="1.0" encoding="UTF-8"?>
<svg id="_Слой_1" data-name="Слой 1" xmlns="http://www.w3.org/2000/svg" viewBox="0 0 60 60">
  <defs>
    <style>
      .cls-1 {
        fill: #fff;
      }
    </style>
  </defs>
  <path class="cls-1" d="m.71,7.55C.71,3.43,4.06.07,8.19.07h18.71v14.96c0,2.07,1.67,3.74,3.74,3.74h14.96v16.84h-24.32c-4.13,0-7.48,3.36-7.48,7.48v16.84h-5.61c-4.13,0-7.48-3.36-7.48-7.48V7.55Zm44.89,7.48h-14.96V.07l14.96,14.96Z"/>
  <g>
    <path class="cls-1" d="m21.59,59.65c-.42,0-.75-.1-1-.29-.25-.19-.38-.43-.38-.7v-15.69c0-.27.12-.51.38-.7.25-.19.58-.29,1-.29h4.28c1.06,0,2.03.18,2.89.54.86.36,1.55.95,2.05,1.76s.76,1.9.76,3.25v6.55c0,1.35-.25,2.44-.76,3.25s-1.19,1.4-2.05,1.76c-.86.36-1.82.54-2.89.54h-4.28Zm1.76-2.76h2.54c.79,0,1.41-.23,1.86-.69s.68-1.16.68-2.11v-6.55c0-.95-.23-1.66-.68-2.11-.45-.46-1.07-.69-1.86-.69h-2.54v12.16Z"/>
    <path class="cls-1" d="m39.74,59.8c-1.06,0-2.02-.18-2.88-.54s-1.54-.95-2.04-1.76-.76-1.9-.76-3.25v-6.69c0-1.35.25-2.44.76-3.25s1.19-1.4,2.04-1.76,1.81-.54,2.88-.54,2.03.18,2.89.54,1.54.95,2.04,1.76c.5.81.75,1.9.75,3.25v6.69c0,1.35-.25,2.44-.75,3.25-.5.81-1.18,1.4-2.04,1.76s-1.82.54-2.89.54Zm0-2.76c.79,0,1.41-.23,1.86-.68.45-.45.68-1.16.68-2.13v-6.69c0-.97-.23-1.67-.68-2.13-.45-.45-1.07-.68-1.86-.68s-1.41.23-1.85.68c-.44.45-.66,1.16-.66,2.13v6.69c0,.97.22,1.68.66,2.13.44.45,1.06.68,1.85.68Z"/>
    <path class="cls-1" d="m53.52,59.8c-1,0-1.93-.18-2.78-.54s-1.54-.95-2.04-1.76-.76-1.9-.76-3.25v-6.69c0-1.35.25-2.44.76-3.25s1.19-1.4,2.04-1.76,1.79-.54,2.8-.54c1.13,0,2.12.19,2.98.57.86.38,1.54.91,2.03,1.58.49.68.74,1.49.74,2.44,0,.63-.13,1.04-.39,1.25s-.65.3-1.18.3c-.43,0-.8-.08-1.1-.23-.3-.15-.46-.41-.47-.76,0-.19-.03-.42-.08-.69-.06-.27-.17-.53-.33-.79s-.41-.48-.74-.65c-.33-.18-.79-.27-1.37-.27-.82,0-1.45.23-1.89.69-.43.46-.65,1.16-.65,2.11v6.69c0,.97.22,1.68.66,2.13.44.45,1.08.68,1.92.68.55,0,.98-.09,1.3-.27.32-.18.56-.4.71-.66.15-.27.26-.54.31-.83.06-.29.1-.56.13-.82.03-.39.19-.65.48-.79s.64-.21,1.06-.21c.55,0,.95.11,1.21.31s.39.62.39,1.23c0,.97-.25,1.81-.74,2.54-.49.72-1.17,1.28-2.04,1.67-.87.39-1.87.58-3,.58Z"/>
  </g>
</svg>