<?xml version="1.0" encoding="UTF-8"?>
<svg id="_Слой_1" data-name="Слой 1" xmlns="http://www.w3.org/2000/svg" viewBox="0 0 60 60">
  <defs>
    <style>
      .cls-1 {
        fill: #fff;
      }
    </style>
  </defs>
  <path class="cls-1" d="m2.03,7.5C2.03,3.36,5.39,0,9.53,0h18.75v15c0,2.07,1.68,3.75,3.75,3.75h15v16.88h-24.38c-4.14,0-7.5,3.36-7.5,7.5v16.87h-5.62c-4.14,0-7.5-3.36-7.5-7.5V7.5Zm45,7.5h-15V0l15,15Z"/>
  <path class="cls-1" d="m23.16,59.84c-.29,0-.6-.07-.92-.22s-.6-.33-.82-.57c-.23-.23-.34-.5-.34-.79,0-.18.06-.37.19-.58l4.19-6.83-4.05-6.81c-.15-.23-.22-.45-.22-.68,0-.27.11-.52.32-.75.21-.23.47-.4.79-.53s.62-.19.91-.19c.26,0,.47.06.64.18.17.12.3.29.4.5l3.29,5.94,3.32-5.94c.11-.21.25-.38.42-.5.17-.12.38-.18.62-.18.31,0,.61.07.92.19s.57.31.77.53c.21.23.32.48.32.75,0,.23-.07.45-.22.68l-4.05,6.81,4.19,6.83c.13.21.19.4.19.58,0,.29-.11.55-.34.79s-.5.42-.81.57c-.32.15-.63.22-.93.22-.18,0-.34-.05-.5-.15-.15-.1-.27-.22-.35-.36l-3.56-6.23-3.54,6.23c-.08.15-.2.27-.35.36-.15.1-.32.15-.5.15Z"/>
  <path class="cls-1" d="m37.16,59.72c-.34,0-.65-.08-.95-.25s-.44-.42-.44-.76v-15.7c0-.35.17-.61.5-.76.33-.15.69-.23,1.08-.23s.77.08,1.09.23c.32.15.48.41.48.76v13.95h5.93c.32,0,.56.14.7.42.15.28.22.6.22.96s-.07.65-.22.94-.38.44-.7.44h-7.7Z"/>
  <path class="cls-1" d="m52.2,59.94c-1.05,0-2-.15-2.85-.46-.85-.31-1.52-.69-2.01-1.15-.49-.46-.74-.92-.74-1.39,0-.23.06-.47.18-.74.12-.27.29-.49.5-.68.21-.19.44-.28.7-.28s.5.09.73.28c.23.19.48.4.77.65.29.25.65.47,1.07.65.42.19.94.28,1.55.28.48,0,.93-.08,1.34-.23.41-.15.74-.38.99-.69.25-.31.38-.7.38-1.19,0-.52-.14-.95-.41-1.31-.28-.36-.65-.66-1.11-.92-.47-.26-.98-.51-1.53-.75-.55-.24-1.1-.5-1.66-.77-.56-.27-1.07-.61-1.53-.99s-.83-.86-1.11-1.43c-.28-.57-.42-1.26-.42-2.08,0-.9.17-1.66.52-2.28.35-.61.81-1.11,1.38-1.49.57-.38,1.21-.65,1.9-.82.69-.17,1.39-.25,2.08-.25.37,0,.81.03,1.32.09s1.02.16,1.53.3c.51.15.93.34,1.26.59.33.25.5.58.5.98,0,.18-.04.4-.13.65-.09.26-.23.49-.41.7-.19.21-.42.32-.71.32-.26,0-.51-.08-.76-.23s-.57-.31-.97-.46c-.4-.15-.93-.23-1.61-.23-.57,0-1.06.07-1.48.22-.42.15-.74.35-.95.62-.21.27-.31.6-.31,1.01s.14.77.42,1.07c.28.29.65.55,1.11.78s.96.45,1.51.68,1.1.49,1.66.79c.56.3,1.07.66,1.54,1.08.47.42.84.94,1.11,1.56s.41,1.38.41,2.29c0,1.15-.25,2.11-.75,2.9-.5.78-1.18,1.37-2.05,1.77-.86.4-1.85.59-2.97.59Z"/>
</svg>