<?xml version="1.0" encoding="UTF-8"?>
<svg id="_Слой_1" data-name="Слой 1" xmlns="http://www.w3.org/2000/svg" viewBox="0 0 60 60">
  <defs>
    <style>
      .cls-1 {
        fill: #fff;
      }
    </style>
  </defs>
  <path class="cls-1" d="m.86,7.5C.86,3.36,4.23,0,8.36,0h18.75v15c0,2.07,1.68,3.75,3.75,3.75h15v16.87h-24.38c-4.14,0-7.5,3.36-7.5,7.5v16.88h-5.62c-4.14,0-7.5-3.36-7.5-7.5V7.5Zm45,7.5h-15V0l15,15Z"/>
  <g>
    <path class="cls-1" d="m22.34,59.72c-.4,0-.77-.08-1.1-.25s-.5-.42-.5-.76v-15.7c0-.27.11-.51.34-.7.23-.19.52-.29.87-.29h4.84c1.03,0,1.97.18,2.8.53.83.35,1.49.93,1.97,1.73.48.8.73,1.86.73,3.19v.15c0,1.32-.25,2.39-.75,3.2-.5.81-1.18,1.39-2.05,1.76-.86.36-1.83.55-2.89.55h-2.71v5.6c0,.34-.16.59-.48.76s-.68.25-1.07.25Zm1.55-9.08h2.71c.79,0,1.41-.23,1.87-.68s.68-1.15.68-2.11v-.27c0-.95-.23-1.66-.68-2.12-.45-.46-1.07-.69-1.87-.69h-2.71v5.86Z"/>
    <path class="cls-1" d="m35.61,59.72c-.42,0-.76-.1-1.01-.29-.25-.19-.38-.43-.38-.7v-15.72c0-.27.13-.51.38-.7.25-.19.58-.29,1.01-.29h4.29c1.07,0,2.03.18,2.89.54.86.36,1.55.95,2.06,1.77s.76,1.9.76,3.26v6.57c0,1.36-.25,2.44-.76,3.26s-1.2,1.41-2.06,1.77c-.86.36-1.83.54-2.89.54h-4.29Zm1.77-2.76h2.54c.79,0,1.41-.23,1.87-.69s.68-1.17.68-2.12v-6.57c0-.95-.23-1.66-.68-2.12-.45-.46-1.07-.69-1.87-.69h-2.54v12.19Z"/>
    <path class="cls-1" d="m49.88,59.72c-.39,0-.75-.08-1.08-.25s-.5-.42-.5-.74v-15.7c0-.34.15-.59.44-.76s.61-.25.95-.25h8.45c.35,0,.61.15.76.44s.23.6.23.92c0,.39-.09.72-.25.99-.17.27-.42.41-.74.41h-6.69v4.85h3.71c.32,0,.57.13.74.38.17.25.25.54.25.88,0,.27-.08.54-.23.81-.15.27-.41.4-.76.4h-3.71v6.64c0,.32-.16.57-.48.74s-.69.25-1.09.25Z"/>
  </g>
</svg>