<svg id="Слой_1" data-name="Слой 1" xmlns="http://www.w3.org/2000/svg" viewBox="0 0 103.93 103.93"><defs><style>.cls-1{fill:#00314f;}</style></defs><path class="cls-1" d="M52,82.31a29.85,29.85,0,0,1-11.91-2.39,30.61,30.61,0,0,1-9.63-6.49A30,30,0,0,1,24,63.76a30.4,30.4,0,0,1-2.35-11.95A29.83,29.83,0,0,1,24,39.94a30.26,30.26,0,0,1,6.45-9.6,29.74,29.74,0,0,1,9.63-6.41,31.86,31.86,0,0,1,23.82,0,29.68,29.68,0,0,1,9.64,6.41,30.07,30.07,0,0,1,8.8,21.47A30.58,30.58,0,0,1,80,63.76a30,30,0,0,1-6.45,9.67,30.54,30.54,0,0,1-9.64,6.49A29.78,29.78,0,0,1,52,82.31Zm0-4.4a25.32,25.32,0,0,0,4.44-6.26,37.74,37.74,0,0,0,2.92-8.38H44.68a38.61,38.61,0,0,0,2.85,8.19A25.55,25.55,0,0,0,52,77.91ZM45.52,77a36,36,0,0,1-3.27-6.22A45,45,0,0,1,40,63.27H28.6a27.33,27.33,0,0,0,6.67,8.46A33.64,33.64,0,0,0,45.52,77Zm13-.08a30.44,30.44,0,0,0,9.82-5.23,27.27,27.27,0,0,0,7-8.42H64a54.34,54.34,0,0,1-2.32,7.43A34.15,34.15,0,0,1,58.49,76.92ZM27.08,58.72H39.14c-.15-1.37-.24-2.6-.26-3.68s0-2.17,0-3.23c0-1.26,0-2.39.08-3.37s.15-2.09.3-3.3H27.08a23,23,0,0,0-.72,3.26,25.93,25.93,0,0,0-.19,3.41,28.69,28.69,0,0,0,.19,3.53A22.39,22.39,0,0,0,27.08,58.72Zm16.77,0H60.16c.2-1.57.33-2.85.38-3.84s.07-2,.07-3.07,0-2-.07-2.92-.18-2.19-.38-3.75H43.85c-.21,1.56-.33,2.82-.38,3.75s-.08,1.91-.08,2.92,0,2.09.08,3.07S43.64,57.15,43.85,58.72Zm20.86,0H76.85a22.39,22.39,0,0,0,.72-3.38,30.81,30.81,0,0,0,.19-3.53,27.78,27.78,0,0,0-.19-3.41,23,23,0,0,0-.72-3.26H64.78c.16,1.77.26,3.12.31,4.06s.07,1.8.07,2.61c0,1.11,0,2.16-.11,3.15S64.86,57.2,64.71,58.72ZM64,40.58H75.33a24.68,24.68,0,0,0-6.87-8.72,26,26,0,0,0-10-4.93A32.84,32.84,0,0,1,61.64,33,50.05,50.05,0,0,1,64,40.58Zm-19.27,0H59.4a29.47,29.47,0,0,0-2.81-7.77A30.93,30.93,0,0,0,52,26.17a16.76,16.76,0,0,0-4.09,5.39A48.15,48.15,0,0,0,44.68,40.58Zm-16.08,0H40.05a43,43,0,0,1,2.13-7.32A35.48,35.48,0,0,1,45.44,27,25,25,0,0,0,28.6,40.58Z"/></svg>