<?xml version="1.0" encoding="UTF-8"?>
<svg id="_Слой_1" data-name="Слой 1" xmlns="http://www.w3.org/2000/svg" viewBox="0 0 69.4 23">
  <defs>
    <style>
      .cls-1 {
        fill: #2a3759;
      }
    </style>
  </defs>
  <path class="cls-1" d="m9.6,14.4h-2.5c-.1,0-.2,0-.2-.1l-2.6-5.7h-1.6v5.6c0,.1-.1.2-.2.2H.2c-.1,0-.2-.1-.2-.2V5.9h4.8c.6,0,2.1-.1,2.1-1.6s-1.7-1.7-2.1-1.7H0V.2c0-.1.1-.2.2-.2h4.7c.8,0,4.9,0,4.9,4.3,0,2.2-1.2,3.3-2.6,3.9.9,2,1.9,4,2.8,6-.1.1-.2.2-.4.2h0Z"/>
  <path class="cls-1" d="m16.4,12.2v2.1c0,.1-.1.2-.2.2h-5.7c-.1,0-.2-.1-.2-.2v-2.1c0-.1.1-.2.2-.2h1.5V.1h2.8v11.9h1.4c.1,0,.2.1.2.2Z"/>
  <path class="cls-1" d="m23.6,14.4c-4.7,0-6.9-3.6-6.9-7.2S19,0,23.6,0s6.9,3.6,6.9,7.2-2.3,7.2-6.9,7.2Zm0-11.8c-2.8,0-4.2,2.3-4.2,4.7s1.4,4.6,4.2,4.6,4.2-2.3,4.2-4.6-1.4-4.7-4.2-4.7Zm0,6c-.8,0-1.4-.6-1.4-1.4s.6-1.4,1.4-1.4,1.4.6,1.4,1.4-.6,1.4-1.4,1.4Z"/>
  <path class="cls-1" d="m44.1,6.4l-3.7,7.4s-.1.1-.2.1h-2.2s-.2,0-.2-.1l-3.8-7.6v8.1c0,.1-.1.2-.2.2h-2.4c-.1,0-.2-.1-.2-.2V.2c0-.1,0-.2.2-.2h2.4l.2.1,5.2,10.5L44.1.2c0-.1.1-.1.2-.1h2.4c.1,0,.2.1.2.2v10.8h-2.7l-.1-4.7h0Z"/>
  <path class="cls-1" d="m58.7,14.4h-2.5s-.1,0-.2-.1l-2.8-8-2.8,8c0,.1-.1.1-.2.1h-2.5c-.2,0-.2-.1-.2-.2L53.1.2c0-.1.3-.1.4,0l5.4,14c.1.1,0,.2-.2.2h0Z"/>
  <path class="cls-1" d="m69.1,14.4h-2.6c-.1,0-.2,0-.2-.1l-2.6-5.7h-1.5v5.6c0,.1-.1.2-.2.2h-2.3c-.1,0-.2-.1-.2-.2V5.9h4.8c.6,0,2.1-.1,2.1-1.6s-1.7-1.7-2.1-1.7h-4.8V.2c0-.1.1-.2.2-.2h4.7c.8,0,4.8,0,4.8,4.3,0,2.2-1.2,3.3-2.6,3.9.9,2,1.9,4,2.8,6-.1.1-.1.2-.3.2h0Z"/>
  <path class="cls-1" d="m4.2,18.3H1.6v1.3h2.3v1.1H1.6v2.2H.2v-5.8h4v1.2h0Z"/>
  <path class="cls-1" d="m6.2,21.6h2.7v1.3h-4v-5.8h1.4v4.5h-.1Z"/>
  <path class="cls-1" d="m10.9,21.7h2.6v1.2h-4v-5.8h3.9v1.2h-2.5v1.1h2.3v1.1h-2.3v1.2Z"/>
  <path class="cls-1" d="m15.6,21.7h2.6v1.2h-4v-5.8h3.9v1.2h-2.5v1.1h2.3v1.1h-2.3v1.2Z"/>
  <path class="cls-1" d="m23.2,17.1v1.2h-1.6v4.6h-1.4v-4.6h-1.6v-1.2h4.6Z"/>
  <path class="cls-1" d="m32.1,22.9h-1.3v-3.4h-.1l-1.3,2.2h-.5l-1.3-2.2h-.1c.1.2.1.5.1.8v2.6h-1.3v-5.8h1.4l1.2,2c.1.1.1.3.2.4,0,.1.1.2.1.3v.1h.1c0-.2.1-.5.3-.7l1.2-2h1.4l-.1,5.7h0Z"/>
  <path class="cls-1" d="m36.8,22.9l-.3-1h-2l-.3,1h-1.5l1.8-5.8h1.8l1.8,5.8h-1.3Zm-2-2.2h1.4l-.3-1.2c-.1-.2-.1-.5-.2-.7,0-.2-.1-.3-.1-.4v-.1h-.1c0,.2-.1.7-.3,1.2l-.4,1.2h0Z"/>
  <path class="cls-1" d="m38.9,22.9v-5.8h1.3l2.1,3.2h.1c-.1-.3-.1-.6-.1-1v-2.2h1.3v5.8h-1.2l-2.1-3.2h-.1c.1.3.1.6.1,1v2.2h-1.4Z"/>
  <path class="cls-1" d="m48.3,22.9l-.3-1h-2l-.3,1h-1.5l1.8-5.8h1.8l1.8,5.8h-1.3Zm-2-2.2h1.4l-.3-1.2c-.1-.2-.1-.5-.2-.7,0-.2-.1-.3-.1-.4v-.1h-.1c0,.2-.1.7-.3,1.2l-.4,1.2h0Z"/>
  <path class="cls-1" d="m52.1,23c-.4,0-.8-.1-1.1-.3s-.5-.4-.7-.8c-.2-.3-.3-.7-.3-1.2v-1.4c0-1.5.9-2.3,2.6-2.3.3,0,.6,0,.9.1s.5.1.7.1l.2.1-.3,1.2s-.1,0-.2-.1c-.1,0-.2-.1-.5-.1-.2,0-.5-.1-.7-.1-.5,0-.8.1-1,.3s-.3.5-.3.9v1.7c0,.1.1.2.2.3s.2.2.3.2.3.1.4.1c.3,0,.5-.1.7-.2.2-.2.2-.4.2-.7v-.4h-1v-1.1h2.4v3.5h-.7l-.2-.9h-.1c-.2.7-.7,1.1-1.5,1.1h0Z"/>
  <path class="cls-1" d="m57,21.7h2.6v1.2h-4v-5.8h3.9v1.2h-2.5v1.1h2.3v1.1h-2.3v1.2Z"/>
  <path class="cls-1" d="m64,21.4l.8,1.5h-1.6l-.7-1.4c0-.1-.1-.2-.1-.2l-.1-.1s-.1-.1-.2-.1h-.4v1.9h-1.4v-5.8h2.2c1.4,0,2.1.6,2.1,1.8v.2c0,.5-.1.9-.3,1.2s-.5.4-.9.5v.1c.2,0,.4.1.6.4h0Zm-.8-2.2v-.3c0-.2-.1-.4-.2-.5-.1-.1-.3-.2-.6-.2h-.8v1.6h.8c.3,0,.5,0,.6-.2.2,0,.2-.2.2-.4h0Z"/>
  <path class="cls-1" d="m67.2,23h-1.3c-.2,0-.3,0-.4-.1s-.2,0-.3-.1h-.1l.2-1.2c.5.2,1.1.2,1.7.2.4,0,.7,0,.8-.1s.2-.2.2-.5c0-.1,0-.2-.1-.3s-.1-.1-.3-.2c-.1,0-.3-.1-.5-.1l-.5-.1c-.5-.1-.9-.3-1.2-.6-.2-.3-.4-.6-.4-1.1,0-1.2.8-1.8,2.3-1.8h.8c.3,0,.5.1.6.1h.2l-.2,1.2c-.4-.2-.9-.2-1.4-.2-.4,0-.6,0-.8.1s-.2.2-.2.4.1.3.2.4c.2.1.4.2.8.2l.5.1c.5.1.9.3,1.1.6s.3.6.3,1.1c.4,1.3-.4,2-2,2h0Z"/>
</svg>