<?xml version="1.0" encoding="utf-8"?>
<!-- Generator: Adobe Illustrator 27.2.0, SVG Export Plug-In . SVG Version: 6.00 Build 0)  -->
<svg version="1.1" id="Слой_1" xmlns="http://www.w3.org/2000/svg" xmlns:xlink="http://www.w3.org/1999/xlink" x="0px" y="0px"
	 viewBox="0 0 12 12" style="enable-background:new 0 0 12 12;" xml:space="preserve">
<style type="text/css">
	.st0{fill:#0AFF6A;}
</style>
<path class="st0" d="M15,10.3h8.4c0.4,0,0.8-0.4,0.8-0.8v0c0-0.4-0.4-0.8-0.8-0.8H15c-0.4,0-0.8,0.4-0.8,0.8v0
	C14.2,9.9,14.6,10.3,15,10.3z"/>
<path class="st0" d="M20.1,13.7V5.2c0-0.4-0.4-0.8-0.8-0.8h0c-0.4,0-0.8,0.4-0.8,0.8v8.4c0,0.4,0.4,0.8,0.8,0.8h0
	C19.7,14.5,20.1,14.1,20.1,13.7z"/>
<path d="M11,6c0,0.5-0.4,0.8-0.8,0.8H6.8v3.4C6.8,10.7,6.5,11,6,11s-0.8-0.4-0.8-0.8V6.8H1.8C1.3,6.8,1,6.4,1,6s0.4-0.8,0.8-0.8h3.4
	V1.8C5.2,1.3,5.6,1,6,1s0.8,0.4,0.8,0.8v3.4h3.4C10.7,5.2,11,5.5,11,6z"/>
</svg>
