<?xml version="1.0" encoding="utf-8"?>
<!-- Generator: Adobe Illustrator 26.0.1, SVG Export Plug-In . SVG Version: 6.00 Build 0)  -->
<svg version="1.1" id="Слой_1" xmlns="http://www.w3.org/2000/svg" xmlns:xlink="http://www.w3.org/1999/xlink" x="0px" y="0px"
	 viewBox="0 0 512 512" style="enable-background:new 0 0 512 512;" xml:space="preserve">
<style type="text/css">
	.st0{fill:#FFFFFF;}
</style>
<path class="st0" d="M218.1,106.6h-66.7h-33.8h-11v8.2v36.6v37.7v83.1l-89.4-66.2c1.5-16.9,10.2-32.6,24-42.8L61.8,148v-41.4
	c0-24.7,20.1-44.8,44.8-44.8h71.5l46.6-34.4c9.1-6.7,20-10.4,31.3-10.4c11.3,0,22.2,3.6,31.3,10.3l46.6,34.5h71.5
	c24.7,0,44.8,20.1,44.8,44.8V148l20.6,15.3c13.8,10.2,22.5,25.9,24,42.8l-89.4,66.2v-83.1v-37.7v-36.6v-8.2h-11h-33.8h-66.7H218.1z
	 M17,435.2V243l203.2,150.5c10.4,7.7,23,11.9,35.8,11.9s25.5-4.1,35.9-11.9L495,243v192.2l0,0c0,33-26.8,59.8-59.8,59.8H76.8
	C43.8,495,17,468.2,17,435.2L17,435.2z M181.3,166.4h149.4c8.2,0,14.9,6.7,14.9,14.9s-6.7,14.9-14.9,14.9H181.3
	c-8.2,0-14.9-6.7-14.9-14.9S173.1,166.4,181.3,166.4z M181.3,226.1h149.4c8.2,0,14.9,6.7,14.9,14.9s-6.7,14.9-14.9,14.9H181.3
	c-8.2,0-14.9-6.7-14.9-14.9S173.1,226.1,181.3,226.1z"/>
</svg>
