<?xml version="1.0" encoding="utf-8"?>
<!-- Generator: Adobe Illustrator 26.0.1, SVG Export Plug-In . SVG Version: 6.00 Build 0)  -->
<svg version="1.1" id="Слой_1" xmlns="http://www.w3.org/2000/svg" xmlns:xlink="http://www.w3.org/1999/xlink" x="0px" y="0px"
	 viewBox="0 0 384 512" style="enable-background:new 0 0 384 512;" xml:space="preserve">
<style type="text/css">
	.st0{fill:#FFFFFF;}
</style>
<path class="st0" d="M72,16c-33.1,0-60,26.9-60,60v360c0,33.1,26.9,60,60,60h240c33.1,0,60-26.9,60-60V166H252
	c-16.6,0-30-13.4-30-30V16H72z M252,16v120h120L252,16z M117,256h150c8.2,0,15,6.8,15,15s-6.8,15-15,15H117c-8.2,0-15-6.8-15-15
	S108.8,256,117,256z M117,316h150c8.2,0,15,6.8,15,15s-6.8,15-15,15H117c-8.2,0-15-6.8-15-15S108.8,316,117,316z M117,376h150
	c8.2,0,15,6.8,15,15s-6.8,15-15,15H117c-8.2,0-15-6.8-15-15S108.8,376,117,376z"/>
</svg>
