<?xml version="1.0" encoding="utf-8"?>
<!-- Generator: Adobe Illustrator 26.0.1, SVG Export Plug-In . SVG Version: 6.00 Build 0)  -->
<svg version="1.1" id="Слой_1" xmlns="http://www.w3.org/2000/svg" xmlns:xlink="http://www.w3.org/1999/xlink" x="0px" y="0px"
	 viewBox="0 0 512 512" style="enable-background:new 0 0 512 512;" xml:space="preserve">
<style type="text/css">
	.st0{fill:#FFFFFF;}
</style>
<path class="st0" d="M181.3,66.2c-6.3-15.3-23-23.4-38.9-19L70.2,66.9C55.9,70.8,46,83.7,46,98.5C46,301.4,210.6,466,413.5,466
	c14.8,0,27.7-9.9,31.7-24.2l19.7-72.2c4.3-15.9-3.8-32.6-19-38.9l-78.7-32.8c-13.4-5.6-28.9-1.7-38,9.5l-33.1,40.4
	c-57.7-27.3-104.5-74.1-131.8-131.8l40.4-33.1c11.2-9.2,15.1-24.6,9.5-38L181.3,66.2L181.3,66.2z"/>
</svg>
