<?xml version="1.0" encoding="utf-8"?>
<!-- Generator: Adobe Illustrator 26.0.1, SVG Export Plug-In . SVG Version: 6.00 Build 0)  -->
<svg version="1.1" id="Слой_1" xmlns="http://www.w3.org/2000/svg" xmlns:xlink="http://www.w3.org/1999/xlink" x="0px" y="0px"
	 viewBox="0 0 384 512" style="enable-background:new 0 0 384 512;" xml:space="preserve">
<style type="text/css">
	.st0{fill:#FFFFFF;}
</style>
<path class="st0" d="M350.4,107.4l-68.2-68.2c-11-11-25.9-17.1-41.4-17.1L75,22c-32.3,0-58.5,26.2-58.5,58.5l0,351
	c0,32.3,26.2,58.5,58.5,58.5h234c32.2,0,58.5-26.3,58.5-58.5V148.7C367.5,133.2,361.4,118.3,350.4,107.4z M323.6,431.5
	c0,8.1-6.5,14.6-14.6,14.6H75c-8.1,0-14.6-6.5-14.6-14.6l0-350.9C60.4,72.5,66.9,66,75,66h146.2v73c0,16.2,13.1,29.2,29.2,29.2h72.3
	v263.2H323.6z M104.3,277.9c0,12.2,9.9,21.9,21.9,21.9h131.6c12.2,0,21.9-9.8,21.9-21.9S270,256,257.8,256H126.2
	C114.1,256,104.3,265.9,104.3,277.9z M257.8,343.7H126.2c-12.1,0-21.9,9.9-21.9,21.9c0,12.1,9.8,21.9,21.9,21.9h131.6
	c12.1,0,21.9-9.8,21.9-21.9C279.7,353.6,270,343.7,257.8,343.7z"/>
</svg>
