<?xml version="1.0" encoding="utf-8"?>
<!-- Generator: Adobe Illustrator 26.0.1, SVG Export Plug-In . SVG Version: 6.00 Build 0)  -->
<svg version="1.1" id="Слой_1" xmlns="http://www.w3.org/2000/svg" xmlns:xlink="http://www.w3.org/1999/xlink" x="0px" y="0px"
	 viewBox="0 0 512 512" style="enable-background:new 0 0 512 512;" xml:space="preserve">
<style type="text/css">
	.st0{fill:#FFFFFF;}
</style>
<path class="st0" d="M492.4,11.5c9.9,6.8,15,18.7,13.2,30.5l-62.5,406.3c-1.5,9.5-7.2,17.8-15.6,22.5c-8.4,4.7-18.5,5.3-27.3,1.6
	l-116.8-48.5l-66.9,72.4c-8.7,9.5-22.4,12.6-34.4,7.9c-12-4.7-19.8-16.3-19.8-29.2v-81.6c0-3.9,1.5-7.6,4.1-10.4L330,204
	c5.7-6.2,5.5-15.6-0.4-21.5s-15.3-6.3-21.5-0.7L109.5,358.4l-86.2-43.2C12.9,310,6.3,299.7,6,288.1c-0.3-11.5,5.8-22.3,15.7-28
	l437.5-250C469.7,4.1,482.6,4.7,492.4,11.5L492.4,11.5z"/>
</svg>
