<svg xmlns="http://www.w3.org/2000/svg" viewBox="0 0 512 512">
	<path class="cls-1" fill='#fff' d="M402.78,111.69h0a35.73,35.73,0,0,0-4,46.11,170,170,0,0,1,31,97.07c.6,93.1-74.25,170.07-167.33,171.93A170.85,170.85,0,0,1,227,88.15,35.58,35.58,0,0,0,256,53.2v0a35.55,35.55,0,0,0-42-35C101.72,39.3,16.82,137.94,17,256.37,17.2,389.63,126.23,498.26,259.49,498,392.91,497.74,501,389.49,501,256a241,241,0,0,0-44.27-139.56A35.57,35.57,0,0,0,402.78,111.69Z" />
	<animateTransform attributeName="transform" dur="0.5s" type="rotate" values="0;360" repeatCount="indefinite" begin="0.2"></animateTransform>
</svg>