<?xml version="1.0" encoding="utf-8"?>
<!-- Generator: Adobe Illustrator 27.2.0, SVG Export Plug-In . SVG Version: 6.00 Build 0)  -->
<svg version="1.1" id="Capa_1" xmlns="http://www.w3.org/2000/svg" xmlns:xlink="http://www.w3.org/1999/xlink" x="0px" y="0px"
	 viewBox="0 0 60 60" style="enable-background:new 0 0 60 60;" xml:space="preserve">
<style type="text/css">
	.st0{fill:#D2232A;}
</style>
<path class="st0" d="M11.6,11.6h25.6v4.6h1.3V11c0-0.4-0.3-0.7-0.7-0.7H11c-0.4,0-0.7,0.3-0.7,0.7v38c0,0.4,0.3,0.7,0.7,0.7h21v-1.3
	H11.6V11.6z"/>
<path class="st0" d="M39,24.3L37.1,20c-0.1-0.3-0.3-0.4-0.6-0.4S36.1,19.7,36,20l-1.8,4.3c-0.1,0.1-0.2,0.3-0.2,0.5V49
	c0,0.4,0.3,0.7,0.7,0.7h3.9c0.4,0,0.7-0.3,0.7-0.7V24.8C39.2,24.6,39.1,24.4,39,24.3z M35.2,25.4h2.6v19h-2.6V25.4z M36.6,21.8
	l1,2.3h-2L36.6,21.8z M37.9,48.4h-2.6v-2.6h2.6V48.4z"/>
<path class="st0" d="M49,35.2h-7.2c-0.4,0-0.7,0.3-0.7,0.7V49c0,0.4,0.3,0.7,0.7,0.7H49c0.4,0,0.7-0.3,0.7-0.7V35.9
	C49.7,35.5,49.4,35.2,49,35.2z M48.4,36.6v3.3h-5.9v-3.3H48.4z M42.5,48.4v-7.2h5.9v7.2H42.5z"/>
<path class="st0" d="M28,17.5c0-2.2-1.8-3.9-3.9-3.9s-3.9,1.8-3.9,3.9s1.8,3.9,3.9,3.9S28,19.7,28,17.5z M21.5,17.5
	c0-1.4,1.2-2.6,2.6-2.6c1.4,0,2.6,1.2,2.6,2.6s-1.2,2.6-2.6,2.6C22.7,20.2,21.5,19,21.5,17.5z"/>
<rect x="20.2" y="23.4" class="st0" width="7.9" height="1.3"/>
<rect x="20.2" y="26.7" class="st0" width="7.9" height="1.3"/>
<rect x="14.3" y="30.7" class="st0" width="9.8" height="1.3"/>
<rect x="14.3" y="33.9" class="st0" width="17" height="1.3"/>
<rect x="14.3" y="37.2" class="st0" width="17" height="1.3"/>
<rect x="14.3" y="40.5" class="st0" width="5.2" height="1.3"/>
<rect x="14.3" y="43.8" class="st0" width="7.2" height="1.3"/>
<rect x="24.1" y="40.5" class="st0" width="5.2" height="1.3"/>
<rect x="24.1" y="43.8" class="st0" width="7.2" height="1.3"/>
</svg>
