<?xml version="1.0" encoding="UTF-8"?>
<svg id="_Слой_1" data-name="Слой 1" xmlns="http://www.w3.org/2000/svg" viewBox="0 0 60 60">
  <defs>
    <style>
      .cls-1 {
        fill: #1f3b90;
      }
    </style>
  </defs>
  <path class="cls-1" d="m30.68,29.47h-8.43c-2.76,0-5.16,1.57-6.35,3.86l21.78,3.92c.11-.19.16-.4.16-.62,0-3.96-3.2-7.16-7.16-7.16Z"/>
  <path class="cls-1" d="m32.84,21.66c0,3.5-2.83,6.34-6.34,6.34s-6.34-2.84-6.34-6.34c0-.82.16-1.62.44-2.34,1.59,1.25,5.69,1.27,5.88,1.27s4.31-.02,5.92-1.26c.29.72.44,1.5.44,2.33Z"/>
  <path class="cls-1" d="m34.04,12.26v-.46s0-.36-.39-.76c-.69-.7-2.48-1.53-7.13-1.53s-6.46.83-7.15,1.53c-.39.39-.41.72-.4.76v.46l1.71,2.01v1.15c-.07,0-.16.03-.25.12-.2.21-.39.75-.3,1.02.03.11.11.18.21.2,0,0,.01,0,.02,0-.15.21-.32.47-.35.61-.08.42.02.8.3,1.14,1.27,1.53,5.98,1.55,6.18,1.55s4.98-.02,6.25-1.56c.28-.33.37-.71.3-1.13-.03-.14-.19-.43-.32-.63.07-.03.13-.1.16-.18.08-.27-.1-.81-.3-1.02-.08-.09-.17-.12-.23-.12v-1.15l1.71-2.01Zm-13.04,2.12h3.47c.4.71,1.16,1.19,2.03,1.19s1.63-.48,2.03-1.19h3.47v1.11c-2.75.66-5.47.67-5.49.67h0c-.05,0-2.76,0-5.49-.66v-1.12Zm3.57-1.14c0-1.06.86-1.92,1.92-1.92s1.92.86,1.92,1.92-.86,1.92-1.92,1.92-1.92-.86-1.92-1.92Zm8.12,4.2c.06.32-.01.6-.22.85-1.18,1.42-5.95,1.44-6,1.44s-4.76-.02-5.93-1.43c-.21-.26-.29-.54-.23-.86.02-.08.2-.35.38-.6,2.77.53,5.76.6,5.79.6h0s3.06-.07,5.85-.62c.16.25.32.54.34.61Zm-.15-.99c-2.79.58-5.92.66-6.05.67-.13,0-3.28-.09-6.06-.67-.03-.15.13-.6.24-.68,2.85.73,5.76.73,5.82.73h0c.06,0,2.95,0,5.8-.73.11.08.27.53.24.68Zm-.46-2.4h-3.4c.09-.25.14-.52.14-.8,0-1.28-1.04-2.33-2.33-2.33s-2.33,1.04-2.33,2.33c0,.28.05.55.14.8h-3.4l-1.62-1.91v-.34s.01-.22.31-.52c.53-.53,2.14-1.43,6.92-1.43,7.05,0,7.19,1.93,7.19,1.95v.34l-1.62,1.91Z"/>
  <g>
    <path class="cls-1" d="m44,33.78c0,.49-.1.92-.3,1.27-.2.35-.49.62-.87.81-.38.19-.82.28-1.33.28-.38,0-.73-.05-1.03-.16s-.57-.26-.79-.46c-.22-.2-.39-.45-.5-.74-.12-.29-.17-.62-.17-.99,0-.27.04-.53.11-.78.07-.25.18-.47.32-.65.05-.08.11-.13.18-.16.07-.02.14-.03.2-.01s.12.05.16.09c.04.05.07.1.07.18,0,.07-.02.15-.08.23-.12.15-.2.32-.26.51s-.08.38-.08.58c0,.35.07.65.22.88.15.24.36.42.63.55.28.12.61.19,1.01.19s.73-.06,1.01-.19c.28-.12.49-.31.64-.55.15-.24.22-.53.22-.88,0-.2-.03-.4-.09-.58-.06-.19-.14-.36-.26-.53-.05-.08-.07-.16-.07-.22,0-.07.03-.12.07-.17.04-.05.09-.08.16-.09s.13-.01.19,0c.07.02.12.07.17.14.15.19.27.41.35.67.08.26.12.53.12.81Z"/>
    <path class="cls-1" d="m44,29.33c0,.46-.1.86-.31,1.21-.2.34-.5.61-.87.79-.38.19-.82.28-1.32.28-.38,0-.73-.05-1.03-.16s-.57-.26-.79-.46c-.22-.2-.39-.44-.5-.72-.12-.28-.17-.6-.17-.95,0-.47.1-.87.3-1.21.2-.34.49-.61.86-.79.37-.19.81-.28,1.32-.28.38,0,.73.05,1.04.16.31.11.57.26.8.46.22.2.39.44.5.72.12.28.17.59.17.94Zm-.62,0c0-.32-.07-.6-.22-.83s-.36-.4-.64-.53-.62-.18-1.02-.18c-.59,0-1.06.13-1.38.4-.33.27-.49.64-.49,1.13,0,.32.07.6.22.83.15.23.36.4.64.53s.62.18,1.02.18c.59,0,1.05-.14,1.38-.4s.5-.65.5-1.13Z"/>
    <path class="cls-1" d="m43.99,26.21c0,.09-.02.17-.06.22s-.1.09-.17.1c-.07,0-.15,0-.24-.04l-4.2-1.87c-.11-.05-.19-.1-.24-.18-.05-.07-.07-.15-.07-.24,0-.08.02-.16.07-.23.05-.07.12-.13.24-.18l4.2-1.87c.09-.04.17-.06.24-.05.07,0,.13.04.17.09s.06.12.06.21c0,.1-.03.18-.08.24-.05.06-.13.11-.24.16l-1.12.48.19-.32v2.95l-.19-.32,1.12.48c.11.05.19.1.24.15.05.06.07.13.07.22Zm-4.13-2l2.48,1.04-.17.17v-2.44l.17.16-2.48,1.05h0Z"/>
    <path class="cls-1" d="m44,19.52c0,.21-.02.42-.05.62-.03.2-.08.39-.15.57-.07.18-.15.34-.25.48-.05.07-.11.12-.17.14-.06.03-.13.03-.19.02-.06-.01-.12-.04-.16-.08-.05-.04-.07-.09-.09-.15s0-.13.06-.2c.13-.21.23-.43.29-.66.06-.23.09-.48.09-.75,0-.39-.07-.68-.21-.87-.14-.19-.32-.28-.55-.28-.18,0-.33.07-.44.2s-.19.36-.26.67l-.15.74c-.09.44-.24.76-.46.98s-.5.32-.86.32c-.22,0-.42-.04-.59-.14-.18-.09-.34-.22-.47-.38s-.23-.35-.3-.58c-.07-.23-.1-.47-.1-.74,0-.29.04-.55.11-.81.07-.25.19-.48.34-.67.04-.06.09-.1.16-.12.06-.02.12-.02.18-.01.06.01.11.04.15.08.04.04.07.09.07.16,0,.06-.02.14-.07.21-.12.18-.21.36-.26.55-.05.19-.08.39-.08.62s.03.42.1.59c.07.17.17.3.29.39s.27.13.44.13c.19,0,.35-.06.46-.19s.2-.33.26-.62l.15-.73c.1-.46.25-.8.45-1.03.2-.23.47-.34.81-.34.22,0,.41.04.58.13s.32.21.45.37c.12.16.22.36.29.58.07.23.1.49.1.77Z"/>
    <path class="cls-1" d="m43.99,15.4c0,.11-.03.2-.1.27s-.15.09-.27.09h-3.96v1.47c0,.1-.03.17-.08.23s-.13.08-.22.08-.17-.03-.22-.08-.08-.13-.08-.23v-3.64c0-.1.03-.18.08-.24s.12-.08.22-.08.17.03.22.08.08.13.08.24v1.47h3.96c.12,0,.21.03.27.09.06.06.1.15.1.27Z"/>
  </g>
  <path class="cls-1" d="m3.92,38.4c4.37-.12,8.72.31,13.02,1.05s8.29,1.51,12.33,2.57c2.01.53,3.86,1.42,5.79,2.16s3.77,1.2,5.73,1.51c4.08.64,8.21.61,12.33.53,1.93-.03,1.93-3.03,0-3-4.14.07-8.34.18-12.43-.58s-7.54-2.79-11.48-3.73c-8.25-1.96-16.77-3.75-25.29-3.52-1.93.05-1.93,3.05,0,3h0Z"/>
  <path class="cls-1" d="m10.96,46.43c2.59-.24,5.1.32,7.61.9s5.04,1.26,7.53,2.01c4.56,1.39,9.13,4.34,14.04,3.9,1.91-.17,1.93-3.18,0-3-2.45.22-4.7-.56-6.94-1.46-2.39-.96-4.76-1.88-7.23-2.6s-4.83-1.34-7.28-1.89-5.12-1.1-7.72-.85c-1.91.18-1.92,3.18,0,3h0Z"/>
</svg>