<?xml version="1.0" encoding="utf-8"?>
<!-- Generator: Adobe Illustrator 27.2.0, SVG Export Plug-In . SVG Version: 6.00 Build 0)  -->
<svg version="1.1" id="Слой_1" xmlns="http://www.w3.org/2000/svg" xmlns:xlink="http://www.w3.org/1999/xlink" x="0px" y="0px"
	 viewBox="0 0 81.6 81.6" style="enable-background:new 0 0 81.6 81.6;" xml:space="preserve">
<style type="text/css">
	.st0{fill:#DC4971;}
</style>
<g id="Слой_2_00000080193274053735871270000001518053323993102729_">
	<g id="Слой_1-2">
		<path class="st0" d="M79.8,62.2l-1.2-7.4c0-3.5-2.4-6.6-5.8-7.5l-2.4-1h-0.1l-3.2-1.3L67,45c-0.9-0.3-1.4-1.2-1.5-2.2l0,0l0,0
			c1.3-1,2.2-2.4,3-3.8c1-0.3,1.8-1,2.2-1.9c0.4-0.8,0.6-1.6,0.7-2.5c0.1-0.8-0.2-1.5-0.9-2c-0.2-6.4-4.7-11.4-10.2-11.4
			c-2.5,0-4.9,1.1-6.6,2.9c-1.6-6.7-6.8-11.6-12.9-11.6s-11.3,4.9-13,11.6c-1.8-1.8-4.2-2.9-6.6-3c-5,0-9.4,4.5-10.1,10.5
			c-0.1,0.4-0.1,0.8-0.1,1.2c-0.5,0.5-0.8,1.1-0.8,1.8c0.2,1.9,1.1,3.8,3,4.3c0.7,1.5,1.8,3,3.1,4l0,0c0,0.9-0.6,1.8-1.5,2h-0.1
			l-3.2,1h-0.1l-2.8,1c-3.4,1-5.7,4-5.7,7.5l-1.2,7.8c-0.1,0.6,0.3,1.2,1,1.3h12.7l-0.7,4.4c-0.1,0.6,0.3,1.2,1,1.3h50.1
			c0.6,0,1.1-0.5,1.1-1.1l0,0c0-0.1,0-0.2,0-0.2l-0.7-4.4h12.5c0.6,0,1.1-0.5,1.1-1.1l0,0C79.8,62.3,79.8,62.2,79.8,62.2L79.8,62.2z
			 M65.9,48.7l1.1-1.2l1,0.4l-4.2,4.7c-0.4-0.6-0.8-1.2-1.4-1.8C63.8,50.4,65,49.7,65.9,48.7z M60.4,48.8c-0.2,0-0.5,0-0.7-0.1
			c-0.6-0.3-1.2-0.6-1.8-0.7c-0.4-0.2-0.8-0.6-1.2-1L56,46.3c0.7-0.6,1.2-1.3,1.4-2.2c0.9,0.4,1.8,0.6,2.8,0.6c1,0,2-0.2,3-0.6
			c0.2,1,0.8,1.8,1.6,2.3l-0.6,0.7C63.3,48.2,61.8,48.8,60.4,48.8L60.4,48.8z M60.3,23.4c3.4,0,6.2,2.6,7.4,6.3
			c-1.8-2-4.5-3-7.2-2.8c-1.7-0.1-3.4,0.5-4.7,1.6c-0.2,0.2-0.4,0.3-0.6,0.6c-0.2-0.5-0.6-1-1-1.3c0-0.2,0-0.5-0.1-0.8
			C55.4,24.8,57.8,23.4,60.3,23.4L60.3,23.4z M54.4,33.5c0.1-0.2,0.2-0.3,0.2-0.5l1-0.4c0.6-0.3,1.1-1,1.1-1.6
			c0.1-0.5,1.7-1.9,3.6-1.8h0.2c3.5-0.2,5,1.4,7.8,4.5l0.1,0.1c0.2,0.2,0.3,0.3,0.5,0.4c0.1,0.1,0.1,0.1,0.2,0.2
			c-0.1,0.6-0.2,1-0.5,1.5c-0.2,0.5-0.6,0.8-1.1,0.8c-0.5,0-0.9,0.3-1,0.7c-0.6,1.4-1.4,2.6-2.6,3.6c-0.1,0.1-0.2,0.2-0.2,0.2
			c-0.1,0.1-0.2,0.1-0.2,0.2c-0.9,0.6-2,1-3.1,1s-2.2-0.4-3-1L57,41.2c-0.1-0.1-0.2-0.2-0.3-0.2c-1.2-1-2.2-2.2-2.7-3.7
			c-0.2-0.4-0.6-0.7-1-0.7c-0.6-0.1-1-0.4-1.1-1C53.1,35.3,53.9,34.5,54.4,33.5L54.4,33.5z M31,49.1l-0.5-0.6L30,48l2-0.6l0.2-0.1
			l1.6,1.8c1.4,1.6,3.2,2.7,5.3,3.1c0.6,0.2,1.2,0.2,1.8,0.2h0.2c0.4,0,0.9,0,1.3-0.1c2.2-0.3,4.2-1.4,5.8-3l0.1-0.1h0.2h0.1
			l2.1-0.8l1-0.3l0.8-0.2l-0.4,0.4l-0.8,0.9l-7.2,8.2l-2.8,3.1l-0.4,0.4l-0.2-0.3L37.6,57L31,49.1z M34.6,41.6
			c0,1.4-0.9,2.7-2.3,3.2h-0.1l-2.7,0.9l-1.5-0.6L27.8,45c-0.9-0.3-1.4-1.2-1.5-2.2l0,0l0,0c1.3-1,2.2-2.4,3-3.8
			c0.7-0.2,1.4-0.6,1.8-1.3c0.9,1.4,2,2.6,3.3,3.7L34.6,41.6L34.6,41.6z M36.7,42.8c1.3,0.6,2.7,1,4.2,1c1.5,0,3-0.4,4.3-1
			c0.3,1.5,1.2,2.8,2.5,3.7L47,47.2l-0.5,0.6c-0.2,0.2-0.5,0.5-0.8,0.7l-0.1,0.1c-0.2,0.1-0.2,0.2-0.4,0.2L45,49
			c-0.2,0.2-0.6,0.3-0.8,0.5L44,49.6l-0.2,0.1l-0.2,0.1c-2.9,1.1-6.2,0.3-8.2-2l-1.1-1.3C35.6,45.5,36.4,44.2,36.7,42.8L36.7,42.8z
			 M51.6,45.6l-2-0.8c-1.4-0.5-2.2-1.8-2.3-3.3v-0.3l0.2-0.2c1.2-1,2.2-2.2,3-3.5c0.5,0.6,1,1,1.8,1.2c0.7,1.5,1.8,3,3.1,4l0,0
			c0,0.9-0.6,1.8-1.4,2h-0.1L51.6,45.6z M29.8,26.6L29.8,26.6c0.8-6.8,5.5-11.8,11-11.8c5.2,0,9.6,4.4,10.8,10.3
			c-3-3-5.7-5-10.6-4.7c-2.2-0.1-4.4,0.6-6.2,2.2c-0.9,0.7-1.4,1.7-1.6,2.7l-3.4,1.5l-0.2,0.1C29.7,26.7,29.7,26.7,29.8,26.6
			L29.8,26.6z M28.7,30l0.1-0.2c0.1-0.1,0.2-0.2,0.3-0.3l1.6-0.7l3.5-1.5c0.7-0.3,1.3-1,1.3-1.8c0-0.2,0.2-0.6,0.9-1.2
			c1.3-1,2.9-1.6,4.5-1.5h0.2c4.6-0.3,6.7,1.7,10,5.3l0.9,1l0.2,0.2c0.2,0.2,0.3,0.3,0.6,0.4c0.1,0.1,0.2,0.2,0.2,0.2
			s0.2,0.2,0.2,0.4c0,0.4-0.1,0.8-0.2,1.2c-0.1,0.4-0.2,0.7-0.4,1.1v-0.1c-0.3,0.8-1,1.3-1.8,1.3c-0.2,0-0.2,0-0.4,0.1
			c-0.3,0.2-0.5,0.3-0.6,0.6c-0.1,0.2-0.2,0.3-0.2,0.5c-0.8,1.8-1.9,3.3-3.4,4.5c-0.2,0.1-0.2,0.2-0.4,0.3c-0.1,0.1-0.2,0.2-0.3,0.2
			c-1.3,1-2.9,1.5-4.5,1.5c-1.6-0.1-3.1-0.6-4.4-1.5c-0.1-0.1-0.2-0.1-0.2-0.2l0,0c-0.2-0.1-0.3-0.2-0.5-0.3
			c-1.5-1.3-2.7-2.9-3.5-4.7l-0.2-0.5c-0.2-0.3-0.4-0.6-0.7-0.7c-0.1,0-0.2-0.1-0.2-0.1c-0.9-0.1-1.7-0.7-1.9-1.5
			c-0.2-0.6-0.4-1.2-0.5-1.9C28.7,30.1,28.7,30,28.7,30L28.7,30z M21.2,23.4c2.6,0.1,4.9,1.4,6.2,3.7c0,0.3,0,0.6-0.1,1l-0.2,0.3
			c-1.7-1.2-3.7-1.7-5.7-1.4c-1.7-0.1-3.4,0.5-4.7,1.6c-0.6,0.6-1.1,1.3-1.3,2.1l-2,0.9C14.1,26.8,17.5,23.3,21.2,23.4L21.2,23.4z
			 M15.1,37.4c-0.2-0.4-0.6-0.7-1-0.7c-1.1,0-1.4-1.7-1.5-2.2c0.1-0.1,0.2-0.2,0.2-0.3l3.8-1.6c0.6-0.3,1.1-1,1.1-1.6
			c0.1-0.5,1.7-1.9,3.6-1.8h0.2c1.8-0.2,3.5,0.3,4.9,1.5c0.2,1.8,1.1,4.2,3.3,5c0,0.1-0.1,0.2-0.2,0.2c-0.2,0.5-0.6,0.8-1.1,0.8
			c-0.5,0-0.9,0.3-1,0.7c-0.6,1.4-1.4,2.6-2.6,3.6l-0.2,0.2c-0.1,0.1-0.2,0.1-0.2,0.2c-0.9,0.6-2,1-3.1,1s-2.2-0.4-3-1l-0.2-0.1
			l-0.1-0.2C16.6,40.1,15.6,38.8,15.1,37.4L15.1,37.4z M25.8,46.4l-0.6,0.6l-1.4,0.5c-1,0.2-2,0.7-2.8,1.3c-1.4-0.1-2.6-0.7-3.4-1.8
			L17,46.3c0.7-0.6,1.2-1.3,1.4-2.2c0.9,0.4,1.8,0.6,2.8,0.6c1,0,2-0.2,3-0.6C24.5,45.1,25.1,45.9,25.8,46.4L25.8,46.4z M14.8,47.3
			l1,1.2c0.8,1,1.8,1.7,3,2.2c-0.5,0.6-0.9,1.1-1.2,1.8l-3.8-4.8L14.8,47.3z M16.7,54.8c-0.2,0.8-0.3,1.7-0.3,2.6l-0.6,3.8h-4.5
			v-5.5c0-0.6-0.5-1.1-1.1-1.1c-0.6,0-1.1,0.5-1.1,1.1v5.5H4.3l1-6.6c0-0.1,0-0.1,0-0.2c-0.1-2.5,1.6-4.7,4-5.4h0.1l2.2-0.7
			L16.7,54.8z M57,67v-7.4c0-0.6-0.5-1.1-1.1-1.1s-1.1,0.5-1.1,1.1V67H27v-7.8c0-0.6-0.5-1.1-1.1-1.1c-0.6,0-1.1,0.5-1.1,1.1V67
			h-7.4l0.5-3.4l0.4-2.2l0.6-3.6c0-0.1,0-0.1,0-0.2v-0.2c0-1,0.2-1.9,0.6-2.9c0.5-1.3,1.4-2.3,2.4-3.2c0.8-0.6,1.8-1.1,2.7-1.4h0.1
			l2-0.6l1.2-0.4l0.2,0.3l1.4,1.8l8.6,10.4l1.8,2.2l0,0c0,0,0,0.1,0.1,0.1l0,0l0.1,0.1l0.1,0.1l0,0h0.1l0.2,0.1h0.1h0.1H41h0.1h0.1
			l0,0h0.1h0.1l0.1-0.1l0,0l0,0l0,0l0.1-0.1l0,0l0,0l2-2.2l4.6-5.2l1.3-1.4l3.3-3.7l1.5-1.7l0.1-0.1l2.6,1l0,0
			c0.6,0.3,1.3,0.6,2,0.7c1.4,0.8,2.6,2,3.3,3.5c0.5,1.1,0.8,2.3,0.8,3.5c0,0.1,0,0.1,0,0.2l0.5,3l0.4,2.3l0.6,3.4L57,67z
			 M72.5,61.2v-5.1c0-0.6-0.5-1.1-1.1-1.1c-0.6,0-1.1,0.5-1.1,1.1v5.1h-4.5l-0.6-3.4c0-1-0.2-2-0.5-3l5.4-6.2l1.8,0.6l0.2,0.1
			c2.5,0.6,4.2,2.9,4.1,5.4c0,0.1,0,0.2,0,0.2l1,6.2C77.2,61.2,72.5,61.2,72.5,61.2z"/>
	</g>
</g>
</svg>
