<?xml version="1.0" encoding="utf-8"?>
<!-- Generator: Adobe Illustrator 27.2.0, SVG Export Plug-In . SVG Version: 6.00 Build 0)  -->
<svg version="1.1" id="Слой_1" xmlns="http://www.w3.org/2000/svg" xmlns:xlink="http://www.w3.org/1999/xlink" x="0px" y="0px"
	 viewBox="0 0 85.8 85.8" style="enable-background:new 0 0 85.8 85.8;" xml:space="preserve">
<style type="text/css">
	.st0{fill:#DC4971;}
</style>
<g id="Слой_2_00000026886182939818285120000016966962600750930068_">
	<g id="Слой_1-2_00000114771793428935029910000002914881272997031331_">
		<path class="st0" d="M71,27.4l4.6-7.1l-9.7-9.7l-7.1,4.6c-2.2-1.2-4.5-2.2-6.9-2.9l-1.8-8.2H36.4l-1.7,8.2
			c-2.4,0.7-4.7,1.6-6.9,2.9l-7-4.6L11,20.4l4.6,7c-1.2,2.2-2.2,4.5-2.9,6.9l-8.2,1.8v13.7l8.2,1.7c0.7,2.4,1.6,4.7,2.9,6.9l-4.6,7
			l9.7,9.7l7-4.6c2.2,1.2,4.5,2.2,6.9,2.9l1.7,8.2h13.8l1.7-8.2c2.4-0.7,4.7-1.6,6.9-2.9l7.1,4.6l9.7-9.7l-4.6-7
			c1.2-2.2,2.2-4.5,2.9-6.9l8.3-1.7V36.1l-8.2-1.7C73.2,31.9,72.2,29.6,71,27.4z M80.3,48.4l-7.9,1.7l-0.1,0.5
			c-0.7,2.6-1.8,5.1-3.1,7.5l-0.3,0.5l4.4,6.8l-7.6,7.7l-6.8-4.4L58.4,69c-2.3,1.4-4.8,2.4-7.5,3.1l-0.5,0.1l-1.7,7.9H37.8l-1.7-7.9
			l-0.5-0.1c-2.6-0.7-5.1-1.7-7.5-3.1l-0.5-0.3l-6.8,4.4l-7.7-7.7l4.4-6.8l-0.3-0.5c-1.4-2.3-2.4-4.8-3.1-7.5L14,50.1l-7.9-1.7V37.5
			l7.9-1.7l0.1-0.5c0.7-2.6,1.7-5.1,3.1-7.5l0.3-0.5l-4.4-6.8l7.7-7.7l6.8,4.4l0.5-0.3c2.3-1.4,4.9-2.4,7.5-3.1l0.5-0.1l1.7-7.9
			h10.8l1.7,7.9l0.5,0.1c2.6,0.7,5.1,1.8,7.5,3.1l0.5,0.3l6.8-4.4l7.7,7.7l-4.4,6.8l0.3,0.5c1.4,2.3,2.4,4.8,3.1,7.5l0.1,0.5
			l7.9,1.7V48.4L80.3,48.4z"/>
		<path class="st0" d="M43.3,17.8c-4.7,0-9.2,1.3-13.2,3.7L31,23c11-6.8,25.4-3.4,32.2,7.6s3.4,25.4-7.6,32.2s-25.4,3.4-32.2-7.6
			c-6-9.7-4.1-22.4,4.5-29.9l-1.2-1.4C16.3,33.1,15.2,49,24.3,59.4s24.9,11.5,35.4,2.4s11.5-24.9,2.4-35.4
			C57.4,21,50.5,17.8,43.3,17.8z"/>
		<rect x="2.1" y="2.1" class="st0" width="18.1" height="1.8"/>
		<rect x="16.4" y="6.6" class="st0" width="1.8" height="1.8"/>
		<rect x="9.3" y="6.6" class="st0" width="1.8" height="1.8"/>
		<rect x="5.7" y="6.6" class="st0" width="1.8" height="1.8"/>
		<rect x="2.1" y="6.6" class="st0" width="1.8" height="1.8"/>
		<rect x="12.9" y="6.6" class="st0" width="1.8" height="1.8"/>
		<rect x="63.9" y="77.4" class="st0" width="18.1" height="1.8"/>
		<rect x="67.5" y="81.9" class="st0" width="1.8" height="1.8"/>
		<rect x="63.9" y="81.9" class="st0" width="1.8" height="1.8"/>
		<rect x="71.1" y="81.9" class="st0" width="1.8" height="1.8"/>
		<rect x="74.7" y="81.9" class="st0" width="1.8" height="1.8"/>
		<rect x="78.3" y="81.9" class="st0" width="1.8" height="1.8"/>
		<rect x="2.7" y="59.4" class="st0" width="1.8" height="1.8"/>
		<rect x="9.8" y="59.4" class="st0" width="1.3" height="1.8"/>
		<rect x="6.3" y="59.4" class="st0" width="1.8" height="1.8"/>
		<rect x="62.8" y="4.4" class="st0" width="1.8" height="1.8"/>
		<rect x="66.3" y="4.4" class="st0" width="1.8" height="1.8"/>
		<rect x="69.9" y="4.4" class="st0" width="1.3" height="1.8"/>
		<rect x="78.8" y="58.6" class="st0" width="1.8" height="1.8"/>
		<rect x="82.4" y="58.6" class="st0" width="1.3" height="1.8"/>
		<rect x="75.2" y="58.6" class="st0" width="1.8" height="1.8"/>
		<rect x="14.8" y="79.9" class="st0" width="8.5" height="1.8"/>
		<rect x="78" y="27.3" class="st0" width="5.7" height="1.8"/>
		<path class="st0" d="M26,53.4h34.5v-1.8h-2.2V34h-5.7v17.7h-2.3v-12h-5.7v11.9h-2.3V32.5h-5.7v19.1h-2.3v-14h-5.7v14h-2.5v1.8H26z
			 M54.4,35.8h2.2v15.9h-2.2V35.8z M46.4,41.5h2.2v10.1h-2.2V41.5z M38.4,34.3h2.2v17.3h-2.2V34.3z M30.4,39.4h2.1v12.2h-2.2
			L30.4,39.4z"/>
	</g>
</g>
</svg>
