<?xml version="1.0" encoding="utf-8"?>
<!-- Generator: Adobe Illustrator 27.2.0, SVG Export Plug-In . SVG Version: 6.00 Build 0)  -->
<svg version="1.1" id="Слой_1" xmlns="http://www.w3.org/2000/svg" xmlns:xlink="http://www.w3.org/1999/xlink" x="0px" y="0px"
	 viewBox="0 0 85.8 85.8" style="enable-background:new 0 0 85.8 85.8;" xml:space="preserve">
<style type="text/css">
	.st0{fill:#D2232A;}
</style>
<g id="Слой_2_00000026854213432406775510000009024603131520494765_">
	<g id="Слой_1-2">
		<path class="st0" d="M0.9,37.8C0.3,38,0,38.5,0,39.1v7.7c0,0.6,0.4,1.1,0.9,1.3l5.2,1.4c0.5,1.6,1.2,3.2,1.9,4.7L5.3,59
			c-0.3,0.5-0.2,1.2,0.3,1.6l5.4,5.3c0.4,0.4,1,0.5,1.6,0.3l4.8-2.7c1.5,0.8,3,1.4,4.7,1.9l1.4,5.2c0.2,0.6,0.7,0.9,1.3,0.9h7.7
			c0.6,0,1.1-0.4,1.3-0.9l1.4-5.2c1.6-0.5,3.2-1.2,4.7-1.9l4.8,2.7c0.5,0.3,1.2,0.2,1.5-0.3l5.4-5.4c0.4-0.4,0.5-1,0.3-1.6L49.1,54
			c0.8-1.5,1.5-3.1,2-4.7l5.1-1.3c0.6-0.2,0.9-0.7,0.9-1.3V39c0-0.6-0.4-1.1-0.9-1.3l-5.2-1.4c-0.5-1.6-1.2-3.2-2-4.7l2.7-4.8
			c0.3-0.5,0.2-1.2-0.3-1.5L46,20c-0.4-0.4-1-0.5-1.5-0.3l-4.8,2.7c-1.5-0.8-3.1-1.5-4.7-2l-1.4-5.2c-0.2-0.6-0.7-0.9-1.3-0.9h-7.6
			c-0.6,0-1.1,0.4-1.3,0.9l-1.4,5.2c-1.6,0.6-3.2,1.2-4.7,2l-4.8-2.8c-0.5-0.3-1.2-0.2-1.6,0.3l-5.2,5.4c-0.4,0.4-0.5,1.1-0.3,1.6
			l2.7,4.8c-0.8,1.5-1.4,3.1-1.9,4.7L0.9,37.8z M8.6,37.7c0.5-1.9,1.2-3.7,2.2-5.3c0.3-0.4,0.3-0.9,0-1.3l-2.6-4.5l4-4l4.5,2.6
			c0.4,0.3,0.9,0.3,1.3,0c1.6-1,3.4-1.8,5.3-2.2c0.4-0.2,0.7-0.5,0.9-0.9l1.4-5h5.7l1.4,5c0.2,0.4,0.5,0.8,0.9,0.9
			c1.9,0.5,3.7,1.2,5.3,2.2c0.4,0.3,0.9,0.3,1.3,0l4.5-2.6l4,4l-2.6,4.6c-0.3,0.4-0.3,0.9,0,1.3c1,1.7,1.7,3.4,2.2,5.3
			c0.2,0.4,0.5,0.8,0.9,0.9l5.1,1.4v5.7l-5.1,1.4c-0.4,0.2-0.8,0.5-0.9,0.9c-0.5,1.9-1.2,3.7-2.2,5.3c-0.3,0.4-0.3,0.9,0,1.3
			l2.6,4.5l-4,4l-4.5-2.5c-0.4-0.3-0.9-0.3-1.3,0c-1.6,1.1-3.4,1.9-5.3,2.3c-0.4,0.2-0.7,0.5-0.9,0.9L31.4,69h-5.7l-1.4-5.1
			c-0.2-0.4-0.5-0.7-0.9-0.9c-1.9-0.5-3.7-1.2-5.3-2.2c-0.4-0.3-0.9-0.3-1.3,0l-4.5,2.6l-4-4l2.6-4.5c0.3-0.4,0.3-0.9,0-1.3
			c-1-1.6-1.8-3.4-2.2-5.3c-0.2-0.4-0.5-0.7-0.9-0.9l-5.1-1.4v-5.7l5.1-1.4C8.1,38.5,8.4,38.2,8.6,37.7z"/>
		<path class="st0" d="M21.6,48.1L19,51.2c2.5,2.1,5.6,3.5,8.8,3.9v2.6h2.3v-2.6c4.5-0.3,8-2.7,8-7.2s-3.4-6.3-7.9-7.4h-0.1v-6.7
			c1.8,0.2,3.6,1,5.1,2.1l2.3-3.2c-2.2-1.5-4.7-2.5-7.4-2.7V28h-2.3v1.8c-4.4,0.3-7.8,2.9-7.8,7.1c0,4.5,3.1,6.1,7.8,7.1v6.9
			C25.5,50.7,23.3,49.7,21.6,48.1z M30.1,44.8c2.1,0.6,3.8,1.3,3.8,3.4s-1.8,2.9-3.8,3.1V44.8z M24.4,36.7c0-1.8,1.6-2.7,3.4-3v6.2
			C25.8,39.3,24.4,38.6,24.4,36.7z M84.6,71.7c0.6-0.2,0.9-0.7,0.9-1.3v-4.5c0-0.6-0.4-1.1-0.9-1.3l-2.8-0.8c-0.2-0.8-0.6-1.6-1-2.3
			l1.4-2.6c0.3-0.5,0.2-1.2-0.3-1.5L78.7,54c-0.4-0.4-1-0.5-1.6-0.3l-2.6,1.5c-0.8-0.4-1.5-0.7-2.3-1l-0.8-2.8
			c-0.2-0.6-0.7-0.9-1.3-0.9h-4.5c-0.6,0-1.1,0.4-1.3,0.9l-0.8,2.8c-0.8,0.2-1.6,0.6-2.3,1l-2.6-1.4c-0.5-0.3-1.2-0.2-1.6,0.2
			l-3.2,3.2c-0.4,0.4-0.5,1-0.3,1.5l1.4,2.6c-0.4,0.8-0.7,1.5-1,2.3l-2.8,0.8c-0.6,0.2-0.9,0.7-0.9,1.3v4.5c0,0.6,0.4,1.1,0.9,1.3
			l2.8,0.8c0.2,0.8,0.6,1.6,1,2.3l-1.4,2.6c-0.3,0.5-0.2,1.2,0.3,1.6l3.2,3.3c0.4,0.4,1,0.5,1.5,0.3l2.6-1.4c0.8,0.4,1.5,0.7,2.3,1
			l0.8,2.8c0.2,0.6,0.7,0.9,1.3,0.9h4.5c0.6,0,1.1-0.4,1.3-0.9l0.8-2.8c0.8-0.2,1.6-0.6,2.3-1l2.6,1.4c0.5,0.3,1.2,0.2,1.6-0.3
			l3.2-3.2c0.4-0.4,0.5-1,0.3-1.6l-1.4-2.6c0.4-0.8,0.7-1.5,1-2.3L84.6,71.7z M80.3,70.1c-0.4,0.2-0.8,0.5-0.9,0.9
			c-0.3,1.1-0.7,2.2-1.3,3.1c-0.3,0.4-0.3,0.9,0,1.3l1.3,2.3l-1.8,1.8l-2.3-1.3c-0.4-0.3-0.9-0.3-1.3,0c-1,0.6-2,1-3.1,1.3
			c-0.4,0.2-0.7,0.5-0.9,0.9l-0.8,2.6h-2.6l-0.8-2.6c-0.2-0.4-0.5-0.8-0.9-0.9c-1.1-0.3-2.2-0.7-3.1-1.3c-0.4-0.3-0.9-0.3-1.3,0
			l-2.3,1.3l-1.8-1.8l1.3-2.3c0.3-0.4,0.3-0.9,0-1.3c-0.6-1-1-2-1.3-3.1c-0.2-0.4-0.5-0.8-0.9-0.9l-2.6-0.8v-2.6l2.6-0.7
			c0.4-0.2,0.8-0.5,0.9-0.9c0.3-1.1,0.7-2.1,1.3-3.1c0.3-0.4,0.3-0.9,0-1.3l-1.3-2.3l1.8-1.8l2.3,1.3c0.4,0.3,0.9,0.3,1.3,0
			c1-0.6,2-1,3.1-1.3c0.4-0.2,0.8-0.5,0.9-0.9l0.8-2.6h2.6l0.8,2.6c0.2,0.4,0.5,0.8,0.9,0.9c1.1,0.3,2.1,0.7,3.1,1.3
			c0.4,0.3,0.9,0.3,1.3,0l2.3-1.3l1.8,1.8l-1.3,2.3c-0.3,0.4-0.3,0.9,0,1.3c0.6,1,1,2,1.3,3.1c0.2,0.4,0.5,0.8,0.9,0.9l2.6,0.8v2.6
			L80.3,70.1z"/>
		<path class="st0" d="M68.9,66.6L68.9,66.6v-4c1.1,0.1,2.2,0.6,3.1,1.3l1.4-1.9c-1.4-0.9-3-1.5-4.7-1.5v-1h-1.4v1
			c-2.6,0.1-4.7,1.7-4.7,4.3s1.8,3.6,4.7,4.3v4.2c-1.4-0.3-2.6-0.9-3.6-1.8l-1.6,1.8c1.5,1.3,3.3,2.1,5.2,2.3V77h1.4v-1.6
			c2.7-0.1,4.8-1.7,4.8-4.3C73.6,68.3,71.7,67.2,68.9,66.6z M67.5,66.2c-1.3-0.4-2.1-0.7-2.1-1.8s0.9-1.7,2.1-1.8V66.2z M68.8,73.1
			v-3.9c1.3,0.4,2.2,0.8,2.2,1.9S70,73,68.8,73.1z M51.3,14.1c-0.6,0.2-0.9,0.7-0.9,1.3V20c0,0.6,0.4,1.1,0.9,1.3l2.8,0.8
			c0.2,0.8,0.6,1.6,1,2.3L53.8,27c-0.3,0.5-0.2,1.1,0.2,1.5l3.2,3.2c0.4,0.4,1,0.5,1.5,0.3l2.6-1.4c0.8,0.4,1.5,0.7,2.3,1l0.8,2.8
			c0.2,0.6,0.7,0.9,1.3,0.9h4.5c0.6,0,1.1-0.4,1.3-0.9l0.8-2.9c0.8-0.2,1.6-0.6,2.3-1l2.6,1.4c0.5,0.3,1.2,0.2,1.6-0.3l3.2-3.2
			c0.4-0.4,0.5-1,0.3-1.5L81,24.4c0.4-0.8,0.7-1.6,1-2.4l2.8-0.8c0.6-0.2,0.9-0.7,0.9-1.3v-4.5c0-0.6-0.4-1.1-0.9-1.3L82,13.4
			c-0.2-0.8-0.6-1.6-1-2.4l1.4-2.6c0.3-0.5,0.2-1.2-0.3-1.6l-3.2-3.2c-0.4-0.4-1-0.5-1.6-0.3l-2.6,1.4c-0.8-0.4-1.5-0.7-2.3-1
			l-0.8-2.9C71.5,0.3,71,0,70.4,0h-4.5c-0.6,0-1.1,0.4-1.3,0.9l-0.8,2.8c-0.8,0.2-1.6,0.6-2.3,1l-2.6-1.4c-0.5-0.3-1.2-0.2-1.5,0.3
			L54,6.9c-0.4,0.4-0.5,1-0.3,1.6l1.5,2.6c-0.4,0.8-0.7,1.5-1,2.3L51.3,14.1z M55.6,15.7c0.4-0.2,0.8-0.5,0.9-0.9
			c0.3-1.1,0.7-2.1,1.3-3.1c0.3-0.4,0.3-0.9,0-1.3L56.5,8l1.8-1.8l2.3,1.3c0.4,0.3,0.9,0.3,1.3,0c1-0.6,2-1,3.1-1.3
			C65.5,6,65.8,5.7,66,5.3l0.8-2.6h2.6l0.8,2.6c0.2,0.4,0.5,0.8,0.9,0.9c1.1,0.3,2.2,0.7,3.1,1.3c0.4,0.3,0.9,0.3,1.3,0l2.3-1.3
			L79.6,8l-1.3,2.3c-0.3,0.4-0.3,0.9,0,1.3c0.6,1,1,2,1.3,3.1c0.2,0.4,0.5,0.8,0.9,0.9l2.6,0.8V19l-2.6,0.8
			c-0.4,0.2-0.8,0.5-0.9,0.9c-0.3,1.1-0.7,2.2-1.3,3.1c-0.3,0.4-0.3,0.9,0,1.3l1.3,2.3l-1.9,1.8L75.3,28c-0.4-0.3-0.9-0.3-1.3,0
			c-1,0.6-2,1-3.1,1.3c-0.4,0.2-0.7,0.5-0.9,0.9l-0.8,2.6h-2.6l-0.8-2.6c-0.2-0.4-0.5-0.7-0.9-0.9c-1.1-0.3-2.1-0.7-3.1-1.3
			c-0.4-0.3-0.9-0.3-1.3,0l-2.3,1.3l-1.8-2l1.3-2.3c0.3-0.4,0.3-0.9,0-1.3c-0.6-1-1-2-1.3-3.1c-0.2-0.4-0.5-0.7-0.9-0.9l-2.6-0.8
			v-2.6L55.6,15.7z"/>
		<path class="st0" d="M63.8,20.9l-1.6,1.8c1.5,1.3,3.3,2.1,5.2,2.3v1.5h1.4V25c2.7-0.1,4.8-1.7,4.8-4.3c0-2.9-2.1-3.8-4.8-4.4l0,0
			v-4c1.1,0.1,2.2,0.6,3.1,1.3l1.3-2.1c-1.3-0.9-2.8-1.4-4.4-1.5V9h-1.4v1c-2.6,0.1-4.7,1.7-4.7,4.3s1.8,3.6,4.7,4.3v4.1
			C66,22.4,64.8,21.8,63.8,20.9z M68.8,18.9c1.3,0.4,2.2,0.8,2.2,1.9s-1,1.7-2.2,1.8V18.9z M65.4,14c0-1,0.9-1.7,2.1-1.8v3.6
			C66.2,15.6,65.4,15.2,65.4,14z"/>
	</g>
</g>
</svg>
