<?xml version="1.0" encoding="utf-8"?>
<!-- Generator: Adobe Illustrator 27.2.0, SVG Export Plug-In . SVG Version: 6.00 Build 0)  -->
<svg version="1.1" id="Слой_1" xmlns="http://www.w3.org/2000/svg" xmlns:xlink="http://www.w3.org/1999/xlink" x="0px" y="0px"
	 viewBox="0 0 71 71" style="enable-background:new 0 0 71 71;" xml:space="preserve">
<style type="text/css">
	.st0{fill:#DC4971;}
</style>
<g id="Слой_2_00000026854213432406775510000009024603131520494765_">
	<g id="Слой_1-2_00000114773470532328785120000018054313346680421285_">
		<path class="st0" d="M1.3,31.4c-0.5,0.2-0.7,0.6-0.7,1.1v6.3c0,0.5,0.3,0.9,0.7,1.1l4.2,1.1c0.4,1.3,1,2.6,1.6,3.8l-2.2,3.9
			c-0.2,0.4-0.2,1,0.2,1.3l4.4,4.3c0.3,0.3,0.8,0.4,1.3,0.2l3.9-2.2c1.2,0.7,2.4,1.1,3.8,1.6l1.1,4.2c0.2,0.5,0.6,0.7,1.1,0.7h6.3
			c0.5,0,0.9-0.3,1.1-0.7l1.1-4.2c1.3-0.4,2.6-1,3.8-1.6l3.9,2.2c0.4,0.2,1,0.2,1.2-0.2l4.4-4.4c0.3-0.3,0.4-0.8,0.2-1.3l-2.3-4
			c0.7-1.2,1.2-2.5,1.6-3.8l4.2-1.1c0.5-0.2,0.7-0.6,0.7-1.1v-6.3c0-0.5-0.3-0.9-0.7-1.1l-4.2-1.1c-0.4-1.3-1-2.6-1.6-3.8l2.2-3.9
			c0.2-0.4,0.2-1-0.2-1.2l-4.4-4.3c-0.3-0.3-0.8-0.4-1.2-0.2l-3.9,2.2c-1.2-0.7-2.5-1.2-3.8-1.6l-1.1-4.2c-0.2-0.5-0.6-0.7-1.1-0.7
			h-6.2c-0.5,0-0.9,0.3-1.1,0.7l-1.1,4.2c-1.3,0.5-2.6,1-3.8,1.6l-3.9-2.3c-0.4-0.2-1-0.2-1.3,0.2l-4.2,4.4
			c-0.3,0.3-0.4,0.9-0.2,1.3l2.2,3.9c-0.7,1.2-1.1,2.5-1.6,3.8L1.3,31.4z M7.5,31.3c0.4-1.6,1-3,1.8-4.3c0.2-0.3,0.2-0.7,0-1.1
			l-2.1-3.7l3.3-3.3l3.7,2.1c0.3,0.2,0.7,0.2,1.1,0c1.3-0.8,2.8-1.5,4.3-1.8c0.3-0.2,0.6-0.4,0.7-0.7l1.1-4.1h4.7l1.1,4.1
			c0.2,0.3,0.4,0.7,0.7,0.7c1.6,0.4,3,1,4.3,1.8c0.3,0.2,0.7,0.2,1.1,0L37,19l3.3,3.3L38.2,26c-0.2,0.3-0.2,0.7,0,1.1
			c0.8,1.4,1.4,2.8,1.8,4.3c0.2,0.3,0.4,0.7,0.7,0.7l4.2,1.1v4.7l-4.2,1.1c-0.3,0.2-0.7,0.4-0.7,0.7c-0.4,1.6-1,3-1.8,4.3
			c-0.2,0.3-0.2,0.7,0,1.1l2.1,3.7L37,52.1l-3.7-2c-0.3-0.2-0.7-0.2-1.1,0c-1.3,0.9-2.8,1.6-4.3,1.9c-0.3,0.2-0.6,0.4-0.7,0.7
			l-1.1,4.2h-4.7l-1.1-4.2c-0.2-0.3-0.4-0.6-0.7-0.7c-1.6-0.4-3-1-4.3-1.8c-0.3-0.2-0.7-0.2-1.1,0l-3.7,2.1L7.3,49l2.1-3.7
			c0.2-0.3,0.2-0.7,0-1.1C8.6,43,8,41.5,7.6,39.9c-0.2-0.3-0.4-0.6-0.7-0.7l-4.2-1.1v-4.7l4.2-1.1C7.1,31.9,7.4,31.7,7.5,31.3z"/>
		<path class="st0" d="M18.2,39.8L16,42.3c2,1.7,4.6,2.9,7.2,3.2v2.1h1.9v-2.1c3.7-0.2,6.5-2.2,6.5-5.9s-2.8-5.1-6.4-6h-0.1v-5.5
			c1.5,0.2,2.9,0.8,4.2,1.7l1.9-2.6c-1.8-1.2-3.8-2-6-2.2v-1.6h-1.9v1.5c-3.6,0.2-6.4,2.4-6.4,5.8c0,3.7,2.5,5,6.4,5.8v5.6
			C21.3,41.9,19.5,41.1,18.2,39.8z M25.1,37.1c1.7,0.5,3.1,1.1,3.1,2.8c0,1.7-1.5,2.4-3.1,2.5C25.1,42.4,25.1,37.1,25.1,37.1z
			 M20.4,30.5c0-1.5,1.3-2.2,2.8-2.4v5.1C21.6,32.6,20.4,32,20.4,30.5z M69.6,59c0.5-0.2,0.7-0.6,0.7-1.1v-3.7
			c0-0.5-0.3-0.9-0.7-1.1l-2.3-0.7c-0.2-0.7-0.5-1.3-0.8-1.9l1.1-2.1c0.2-0.4,0.2-1-0.2-1.2l-2.6-2.8c-0.3-0.3-0.8-0.4-1.3-0.2
			l-2.1,1.2c-0.7-0.3-1.2-0.6-1.9-0.8l-0.7-2.3c-0.2-0.5-0.6-0.7-1.1-0.7h-3.7c-0.5,0-0.9,0.3-1.1,0.7l-0.7,2.3
			c-0.7,0.2-1.3,0.5-1.9,0.8l-2.1-1.1c-0.4-0.2-1-0.2-1.3,0.2l-2.6,2.6c-0.3,0.3-0.4,0.8-0.2,1.2l1.1,2.1c-0.3,0.7-0.6,1.2-0.8,1.9
			l-2.3,0.7c-0.5,0.2-0.7,0.6-0.7,1.1v3.7c0,0.5,0.3,0.9,0.7,1.1l2.3,0.7c0.2,0.7,0.5,1.3,0.8,1.9l-1.1,2.1c-0.2,0.4-0.2,1,0.2,1.3
			l2.6,2.7c0.3,0.3,0.8,0.4,1.2,0.2l2.1-1.1c0.7,0.3,1.2,0.6,1.9,0.8l0.7,2.3c0.2,0.5,0.6,0.7,1.1,0.7h3.7c0.5,0,0.9-0.3,1.1-0.7
			l0.7-2.3c0.7-0.2,1.3-0.5,1.9-0.8l2.1,1.1c0.4,0.2,1,0.2,1.3-0.2l2.6-2.6c0.3-0.3,0.4-0.8,0.2-1.3l-1.1-2.1
			c0.3-0.7,0.6-1.2,0.8-1.9L69.6,59z M66.1,57.7c-0.3,0.2-0.7,0.4-0.7,0.7c-0.2,0.9-0.6,1.8-1.1,2.5c-0.2,0.3-0.2,0.7,0,1.1l1.1,1.9
			l-1.5,1.5L62,64.4c-0.3-0.2-0.7-0.2-1.1,0c-0.8,0.5-1.6,0.8-2.5,1.1c-0.3,0.2-0.6,0.4-0.7,0.7L57,68.3h-2.1l-0.7-2.1
			c-0.2-0.3-0.4-0.7-0.7-0.7c-0.9-0.2-1.8-0.6-2.5-1.1c-0.3-0.2-0.7-0.2-1.1,0L48,65.4l-1.5-1.5l1.1-1.9c0.2-0.3,0.2-0.7,0-1.1
			c-0.5-0.8-0.8-1.6-1.1-2.5c-0.2-0.3-0.4-0.7-0.7-0.7l-2.1-0.7V55l2.1-0.6c0.3-0.2,0.7-0.4,0.7-0.7c0.2-0.9,0.6-1.7,1.1-2.5
			c0.2-0.3,0.2-0.7,0-1.1l-1.1-1.9l1.5-1.5l1.9,1.1c0.3,0.2,0.7,0.2,1.1,0c0.8-0.5,1.6-0.8,2.5-1.1c0.3-0.2,0.7-0.4,0.7-0.7l0.7-2.1
			H57l0.7,2.1c0.2,0.3,0.4,0.7,0.7,0.7c0.9,0.2,1.7,0.6,2.5,1.1c0.3,0.2,0.7,0.2,1.1,0l1.9-1.1l1.5,1.5l-1.1,1.9
			c-0.2,0.3-0.2,0.7,0,1.1c0.5,0.8,0.8,1.6,1.1,2.5c0.2,0.3,0.4,0.7,0.7,0.7l2.1,0.7v2.1L66.1,57.7z"/>
		<path class="st0" d="M56.8,54.9L56.8,54.9v-3.3c0.9,0.1,1.8,0.5,2.5,1.1l1.1-1.6c-1.1-0.7-2.4-1.2-3.8-1.2v-0.8h-1.1v0.8
			c-2.1,0.1-3.8,1.4-3.8,3.5c0,2.1,1.5,2.9,3.8,3.5v3.4c-1.1-0.2-2.1-0.7-2.9-1.5l-1.3,1.5c1.2,1.1,2.7,1.7,4.2,1.9v1.1h1.1v-1.3
			c2.2-0.1,3.9-1.4,3.9-3.5C60.6,56.3,59,55.4,56.8,54.9z M55.6,54.6c-1.1-0.3-1.7-0.6-1.7-1.5c0-0.9,0.7-1.4,1.7-1.5V54.6z
			 M56.7,60.2V57c1.1,0.3,1.8,0.7,1.8,1.6C58.5,59.5,57.7,60.1,56.7,60.2z M42.4,12c-0.5,0.2-0.7,0.6-0.7,1.1v3.8
			c0,0.5,0.3,0.9,0.7,1.1l2.3,0.7c0.2,0.7,0.5,1.3,0.8,1.9l-1.1,2.1c-0.2,0.4-0.2,0.9,0.2,1.2l2.6,2.6c0.3,0.3,0.8,0.4,1.2,0.2
			l2.1-1.1c0.7,0.3,1.2,0.6,1.9,0.8l0.7,2.3c0.2,0.5,0.6,0.7,1.1,0.7h3.7c0.5,0,0.9-0.3,1.1-0.7l0.7-2.4c0.7-0.2,1.3-0.5,1.9-0.8
			l2.1,1.1c0.4,0.2,1,0.2,1.3-0.2l2.6-2.6c0.3-0.3,0.4-0.8,0.2-1.2l-1.1-2c0.3-0.7,0.6-1.3,0.8-2l2.3-0.7c0.5-0.2,0.7-0.6,0.7-1.1
			v-3.7c0-0.5-0.3-0.9-0.7-1.1l-2.3-0.6c-0.2-0.7-0.5-1.3-0.8-2l1.1-2.1c0.2-0.4,0.2-1-0.2-1.3l-2.6-2.6c-0.3-0.3-0.8-0.4-1.3-0.2
			l-2.1,1.1c-0.7-0.3-1.2-0.6-1.9-0.8L59,1.2c-0.1-0.4-0.5-0.7-1-0.7h-3.7c-0.5,0-0.9,0.3-1.1,0.7l-0.7,2.3
			c-0.7,0.2-1.3,0.5-1.9,0.8l-2.1-1.1c-0.4-0.2-1-0.2-1.2,0.2l-2.8,2.7c-0.3,0.3-0.4,0.8-0.2,1.3l1.2,2.1c-0.3,0.7-0.6,1.2-0.8,1.9
			L42.4,12z M45.9,13.3c0.3-0.2,0.7-0.4,0.7-0.7c0.2-0.9,0.6-1.7,1.1-2.5c0.2-0.3,0.2-0.7,0-1.1l-1.1-2l1.5-1.5L50,6.6
			c0.3,0.2,0.7,0.2,1.1,0c0.8-0.5,1.6-0.8,2.5-1.1c0.4-0.2,0.7-0.4,0.8-0.7L55,2.7h2.1l0.7,2.1c0.2,0.3,0.4,0.7,0.7,0.7
			c0.9,0.2,1.8,0.6,2.5,1.1c0.3,0.2,0.7,0.2,1.1,0L64,5.6l1.5,1.5l-1.1,1.9c-0.2,0.3-0.2,0.7,0,1.1c0.5,0.8,0.8,1.6,1.1,2.5
			c0.2,0.3,0.4,0.7,0.7,0.7l2.1,0.7V16l-2.1,0.7c-0.3,0.2-0.7,0.4-0.7,0.7c-0.2,0.9-0.6,1.8-1.1,2.5c-0.2,0.3-0.2,0.7,0,1.1l1.1,1.9
			l-1.6,1.5l-2-1c-0.3-0.2-0.7-0.2-1.1,0c-0.8,0.5-1.6,0.8-2.5,1.1c-0.3,0.2-0.6,0.4-0.7,0.7L57,27.3h-2.1l-0.7-2.1
			c-0.2-0.3-0.4-0.6-0.7-0.7c-0.9-0.2-1.7-0.6-2.5-1.1c-0.3-0.2-0.7-0.2-1.1,0L48,24.4l-1.5-1.6l1.1-1.9c0.2-0.3,0.2-0.7,0-1.1
			c-0.5-0.8-0.8-1.6-1.1-2.5c-0.2-0.3-0.4-0.6-0.7-0.7L43.7,16v-2.1L45.9,13.3z"/>
		<path class="st0" d="M52.6,17.6l-1.3,1.5c1.2,1.1,2.7,1.7,4.2,1.9v1.2h1.1v-1.2c2.2-0.1,3.9-1.4,3.9-3.5c0-2.4-1.7-3.1-3.9-3.6
			l0,0v-3.3c0.9,0.1,1.8,0.5,2.5,1.1l1.1-1.7c-1.1-0.7-2.3-1.1-3.6-1.2V7.9h-1.1v0.8c-2.1,0.1-3.8,1.4-3.8,3.5s1.5,2.9,3.8,3.5v3.3
			C54.4,18.8,53.4,18.3,52.6,17.6z M56.7,16c1.1,0.3,1.8,0.7,1.8,1.6s-0.8,1.4-1.8,1.5V16z M53.9,12c0-0.8,0.7-1.4,1.7-1.5v2.9
			C54.6,13.3,53.9,12.9,53.9,12z"/>
	</g>
</g>
</svg>
