<?xml version="1.0" encoding="utf-8"?>
<!-- Generator: Adobe Illustrator 27.2.0, SVG Export Plug-In . SVG Version: 6.00 Build 0)  -->
<svg version="1.1" id="Слой_1" xmlns="http://www.w3.org/2000/svg" xmlns:xlink="http://www.w3.org/1999/xlink" x="0px" y="0px"
	 viewBox="0 0 65.4 72" style="enable-background:new 0 0 65.4 72;" xml:space="preserve">
<style type="text/css">
	.st0{fill:#D2232A;}
</style>
<g id="Слой_2_00000093885228475479743130000008944793775871083657_">
	<g id="Слой_1-2">
		<path class="st0" d="M6.2,58.9l-6.1-21C0,37.3,0,36.6,0.3,36c0.3-0.6,0.8-1.1,1.4-1.3l4.8-1.6V14.7c0-1.3,0.5-2.6,1.5-3.4
			c0.9-0.9,2.2-1.4,3.5-1.5h12.3V0h18v9.8H54c2.7,0,4.9,2.2,4.9,4.8c0,0,0,0,0,0.1v18.4l4.9,1.5c0.6,0.2,1.1,0.7,1.3,1.2
			c0.3,0.6,0.3,1.3,0.1,1.9l-6,21.1c-2.6-0.3-5.1-1.1-7.3-2.4c-2.2-1.3-4.2-2.8-6-4.7c-1.7,1.9-3.7,3.6-5.9,5
			c-4.4,2.7-10,2.7-14.5,0c-2.2-1.4-4.2-3.1-5.9-5c-1.8,1.8-3.8,3.4-6,4.7C11.3,57.8,8.8,58.7,6.2,58.9z M0,72v-4.9h6.6
			c2.3,0,4.6-0.4,6.8-1.1c2.2-0.7,4.4-1.7,6.3-3c1.9,1.3,4.1,2.3,6.3,3c4.4,1.3,9.1,1.3,13.6,0c2.2-0.7,4.4-1.7,6.3-3
			c1.9,1.3,4.1,2.3,6.3,3c2.2,0.7,4.5,1.1,6.8,1.1h6.5V72h-6.5c-2.2,0-4.5-0.3-6.6-0.9c-2.2-0.6-4.4-1.4-6.5-2.5
			c-2.1,1.1-4.3,1.9-6.5,2.5c-4.3,1.1-8.8,1.1-13.1,0c-2.3-0.6-4.5-1.4-6.5-2.5c-2.1,1.1-4.2,1.9-6.5,2.5C11,71.7,8.8,72,6.6,72H0z
			 M11.4,31.5l21.3-6.9l21.3,7V14.7H11.4V31.5z M32.7,54c2.8,0,5.5-1.2,7.4-3.3c2.2-2.2,4.1-4.3,5.7-6.2c1.4,1.7,2.9,3.3,4.5,4.8
			c1.7,1.5,3.5,2.9,5.4,4L60,38.6l-27.3-8.8L5.4,38.6l4.2,14.5c2-1.1,3.8-2.4,5.4-3.9c1.6-1.5,3.2-3.1,4.5-4.8c1.6,2,3.5,4,5.6,6.3
			C27.2,52.8,29.9,54,32.7,54z"/>
	</g>
</g>
</svg>
