<?xml version="1.0" encoding="utf-8"?>
<!-- Generator: Adobe Illustrator 27.2.0, SVG Export Plug-In . SVG Version: 6.00 Build 0)  -->
<svg version="1.1" id="Слой_1" xmlns="http://www.w3.org/2000/svg" xmlns:xlink="http://www.w3.org/1999/xlink" x="0px" y="0px"
	 viewBox="0 0 71 39.5" style="enable-background:new 0 0 71 39.5;" xml:space="preserve">
<style type="text/css">
	.st0{fill:#DC4971;}
</style>
<g>
	<path class="st0" d="M21.9,4.4C22,4.4,22,4.5,21.9,4.4l0.1,6c0,0,0,0.1-0.1,0.1h-7.6c0,0-0.1,0-0.1-0.1V4.5c0,0,0-0.1,0.1-0.1H21.9
		 M21.9,2.9h-7.6c-0.9,0-1.6,0.7-1.6,1.6v5.9c0,0.9,0.7,1.6,1.6,1.6h7.6c0.9,0,1.6-0.7,1.6-1.6V4.5C23.5,3.6,22.8,2.9,21.9,2.9
		L21.9,2.9z"/>
</g>
<g>
	<path class="st0" d="M34.4,4.4C34.4,4.4,34.4,4.5,34.4,4.4l0.1,6c0,0,0,0.1-0.1,0.1h-7.6c0,0-0.1,0-0.1-0.1V4.5c0,0,0-0.1,0.1-0.1
		H34.4 M34.4,2.9h-7.6c-0.9,0-1.6,0.7-1.6,1.6v5.9c0,0.9,0.7,1.6,1.6,1.6h7.6c0.9,0,1.6-0.7,1.6-1.6V4.5C35.9,3.6,35.2,2.9,34.4,2.9
		L34.4,2.9z"/>
</g>
<g>
	<path class="st0" d="M40.8,14.7C40.8,14.7,40.8,14.8,40.8,14.7l0.1,6c0,0,0,0.1-0.1,0.1h-7.6c0,0-0.1,0-0.1-0.1v-5.9
		c0,0,0-0.1,0.1-0.1H40.8 M40.8,13.2h-7.6c-0.9,0-1.6,0.7-1.6,1.6v5.9c0,0.9,0.7,1.6,1.6,1.6h7.6c0.9,0,1.6-0.7,1.6-1.6v-5.9
		C42.3,13.9,41.6,13.2,40.8,13.2L40.8,13.2z"/>
</g>
<g>
	<path class="st0" d="M28.3,14.7C28.3,14.7,28.4,14.8,28.3,14.7l0.1,6c0,0,0,0.1-0.1,0.1h-7.6c0,0-0.1,0-0.1-0.1v-5.9
		c0,0,0-0.1,0.1-0.1H28.3 M28.3,13.2h-7.6c-0.9,0-1.6,0.7-1.6,1.6v5.9c0,0.9,0.7,1.6,1.6,1.6h7.6c0.9,0,1.6-0.7,1.6-1.6v-5.9
		C29.9,13.9,29.2,13.2,28.3,13.2L28.3,13.2z"/>
</g>
<g>
	<path class="st0" d="M15.8,14.7C15.8,14.7,15.9,14.8,15.8,14.7l0.1,6c0,0,0,0.1-0.1,0.1H8.2c0,0-0.1,0-0.1-0.1v-5.9
		c0,0,0-0.1,0.1-0.1H15.8 M15.8,13.2H8.2c-0.9,0-1.6,0.7-1.6,1.6v5.9c0,0.9,0.7,1.6,1.6,1.6h7.6c0.9,0,1.6-0.7,1.6-1.6v-5.9
		C17.4,13.9,16.7,13.2,15.8,13.2L15.8,13.2z"/>
</g>
<g>
	<path class="st0" d="M66.8,21.3l-13,13.5H9.2L4.4,31L3,25.6h39.6c0.6,0,1.2-0.2,1.7-0.6l4.6-3.5L66.8,21.3 M69.5,19.3
		C69.5,19.3,69.5,19.3,69.5,19.3l-21,0.1c-0.2,0-0.4,0.1-0.5,0.2l-4.9,3.8c-0.1,0.1-0.3,0.2-0.5,0.2H1.5c-0.6,0-1,0.5-0.8,1.1l2,7.2
		c0,0.2,0.1,0.3,0.3,0.4l5.3,4.4c0.2,0.1,0.3,0.2,0.5,0.2h45.6c0.2,0,0.4-0.1,0.6-0.3l15.2-15.9C70.6,20.2,70.2,19.3,69.5,19.3
		L69.5,19.3z"/>
</g>
</svg>
