<?xml version="1.0" encoding="utf-8"?>
<!-- Generator: Adobe Illustrator 27.2.0, SVG Export Plug-In . SVG Version: 6.00 Build 0)  -->
<svg version="1.1" id="Слой_1" xmlns="http://www.w3.org/2000/svg" xmlns:xlink="http://www.w3.org/1999/xlink" x="0px" y="0px"
	 viewBox="0 0 97.6 71" style="enable-background:new 0 0 97.6 71;" xml:space="preserve">
<style type="text/css">
	.st0{fill:#D2232A;}
</style>
<g id="Слой_2_00000080193274053735871270000001518053323993102729_">
	<g id="Слой_1-2">
		<path class="st0" d="M97.5,62.2L96,53c0-4.4-3-8.3-7.2-9.4l-3-1.2h-0.1l-4-1.6l-0.2-0.1c-1.1-0.4-1.8-1.5-1.9-2.7V38l0,0
			c1.6-1.3,2.8-3,3.7-4.8c1.2-0.4,2.2-1.3,2.7-2.4c0.5-1,0.8-2,0.9-3.1c0.1-1-0.3-1.9-1.1-2.5c-0.3-8-5.9-14.3-12.7-14.3
			c-3.1,0-6.1,1.4-8.2,3.6C62.9,6.1,56.4,0,48.8,0S34.7,6.1,32.6,14.5c-2.2-2.3-5.2-3.6-8.3-3.7c-6.3,0-11.8,5.6-12.6,13.1
			c-0.1,0.5-0.1,1-0.1,1.5c-0.6,0.6-1,1.4-1,2.2c0.2,2.4,1.4,4.8,3.7,5.4c0.9,1.9,2.2,3.7,3.9,5l0,0c0,1.1-0.8,2.2-1.9,2.5h-0.1
			l-4,1.3l-0.1,0l-3.5,1.2c-4.2,1.2-7.1,5-7.1,9.4L0,62.2c-0.1,0.8,0.4,1.5,1.2,1.6h15.9l-0.9,5.5c-0.1,0.8,0.4,1.5,1.2,1.6H80
			c0.8,0,1.4-0.6,1.4-1.4l0,0c0-0.1,0-0.2,0-0.2l-0.9-5.5h15.6c0.8,0,1.4-0.6,1.4-1.4l0,0C97.6,62.3,97.6,62.2,97.5,62.2L97.5,62.2z
			 M80.2,45.3l1.4-1.5l1.2,0.5l-5.2,5.9c-0.5-0.8-1-1.5-1.7-2.2C77.5,47.5,79,46.6,80.2,45.3z M73.3,45.5c-0.3,0-0.6,0-0.9-0.1
			c-0.7-0.4-1.5-0.7-2.3-0.9c-0.5-0.3-1-0.8-1.5-1.3l-0.8-0.9c0.9-0.7,1.5-1.6,1.8-2.7c1.1,0.5,2.3,0.7,3.5,0.8
			c1.3,0,2.5-0.3,3.7-0.8c0.3,1.2,1,2.2,2,2.9l-0.8,0.9C76.9,44.7,75.1,45.5,73.3,45.5L73.3,45.5z M73.2,13.7c4.2,0,7.8,3.3,9.2,7.9
			c-2.3-2.5-5.6-3.8-9-3.5c-2.1-0.1-4.2,0.6-5.9,2c-0.2,0.2-0.5,0.4-0.7,0.7c-0.3-0.6-0.7-1.2-1.2-1.6c0-0.3,0-0.6-0.1-1
			C67.1,15.4,70,13.7,73.2,13.7L73.2,13.7z M65.8,26.3c0.1-0.2,0.2-0.4,0.3-0.6l1.2-0.5c0.8-0.4,1.4-1.2,1.4-2
			c0.1-0.6,2.1-2.4,4.5-2.2h0.2c4.4-0.3,6.3,1.8,9.7,5.6l0.1,0.1c0.2,0.2,0.4,0.4,0.6,0.5c0.1,0.1,0.1,0.1,0.2,0.2
			c-0.1,0.7-0.3,1.3-0.6,1.9c-0.2,0.6-0.8,1-1.4,1c-0.6,0-1.1,0.4-1.3,0.9c-0.7,1.7-1.8,3.3-3.2,4.5c-0.1,0.1-0.2,0.2-0.3,0.2
			c-0.1,0.1-0.2,0.1-0.3,0.2c-1.1,0.8-2.5,1.3-3.9,1.3c-1.4,0-2.7-0.5-3.8-1.3l-0.2-0.1c-0.1-0.1-0.3-0.2-0.4-0.3
			c-1.5-1.2-2.7-2.8-3.4-4.6c-0.2-0.5-0.7-0.9-1.3-0.9c-0.7-0.1-1.2-0.5-1.4-1.2C64.1,28.6,65.2,27.6,65.8,26.3L65.8,26.3z
			 M36.5,45.8l-0.6-0.7l-0.6-0.7l2.5-0.8l0.3-0.1l2,2.3c1.7,2,4,3.4,6.6,3.9c0.7,0.2,1.5,0.3,2.3,0.3h0.2c0.5,0,1.1,0,1.6-0.1
			c2.8-0.4,5.3-1.7,7.2-3.8l0.1-0.1l0.2,0h0.1L61,45l1.2-0.4l1-0.3l-0.5,0.5l-1,1.1l-9,10.2L49.2,60l-0.5,0.5l-0.3-0.4l-3.6-4.4
			L36.5,45.8z M41,36.4c0,1.8-1.1,3.4-2.9,4h-0.1l-3.4,1.1l-1.9-0.7l-0.2-0.1c-1.1-0.4-1.8-1.5-1.9-2.7v0l0,0c1.6-1.3,2.8-3,3.7-4.8
			c0.9-0.3,1.7-0.8,2.3-1.6c1.1,1.7,2.5,3.3,4.1,4.6L41,36.4L41,36.4z M43.7,37.9c1.6,0.8,3.4,1.2,5.2,1.2c1.9,0,3.7-0.5,5.4-1.3
			c0.4,1.9,1.5,3.5,3.1,4.6l-0.9,1l-0.6,0.7c-0.3,0.3-0.6,0.6-1,0.9l-0.1,0.1c-0.2,0.1-0.3,0.2-0.5,0.3L54,45.7
			c-0.3,0.2-0.7,0.4-1,0.6l-0.2,0.1l-0.2,0.1l-0.2,0.1c-3.6,1.4-7.7,0.4-10.2-2.5l-1.4-1.6C42.3,41.3,43.3,39.7,43.7,37.9L43.7,37.9
			z M62.3,41.5l-2.5-1c-1.7-0.6-2.8-2.3-2.9-4.1v-0.4l0.2-0.2c1.5-1.3,2.8-2.7,3.8-4.4c0.6,0.7,1.3,1.2,2.2,1.5
			c0.9,1.9,2.2,3.7,3.9,5l0,0c0,1.1-0.8,2.2-1.8,2.5h-0.1L62.3,41.5z M35,17.7L35,17.7c1-8.5,6.9-14.8,13.8-14.8
			c6.5,0,12,5.5,13.5,12.9C58.6,12,55.2,9.5,49,9.9c-2.8-0.1-5.5,0.8-7.7,2.7c-1.1,0.9-1.8,2.1-2,3.4l-4.3,1.9l-0.2,0.1
			C34.9,17.8,34.9,17.8,35,17.7L35,17.7z M33.7,22l0.1-0.2c0.1-0.1,0.3-0.3,0.4-0.4l2-0.9l4.4-1.9c0.9-0.4,1.6-1.3,1.6-2.3
			c0-0.2,0.2-0.8,1.1-1.5c1.6-1.3,3.6-2,5.6-1.9h0.2c5.8-0.4,8.4,2.1,12.5,6.6l1.1,1.2l0.2,0.2c0.2,0.3,0.4,0.4,0.7,0.5
			c0.1,0.1,0.2,0.2,0.3,0.3c0.1,0.1,0.2,0.3,0.2,0.5c0,0.5-0.1,1-0.3,1.5c-0.1,0.5-0.3,0.9-0.5,1.4V25C62.9,26,62,26.6,61,26.6
			c-0.2,0-0.3,0-0.5,0.1c-0.4,0.2-0.6,0.4-0.8,0.8c-0.1,0.2-0.2,0.4-0.3,0.6c-1,2.2-2.4,4.1-4.2,5.6c-0.2,0.1-0.3,0.3-0.5,0.4
			c-0.1,0.1-0.3,0.2-0.4,0.3c-1.6,1.2-3.6,1.9-5.6,1.9c-2-0.1-3.9-0.7-5.5-1.9c-0.1-0.1-0.2-0.1-0.2-0.2l0,0
			c-0.2-0.1-0.4-0.3-0.6-0.4c-1.9-1.6-3.4-3.6-4.4-5.9l-0.3-0.6c-0.2-0.4-0.5-0.7-0.9-0.9c-0.1,0-0.2-0.1-0.3-0.1
			c-1.1-0.1-2.1-0.9-2.4-1.9c-0.3-0.8-0.5-1.5-0.6-2.4C33.6,22.1,33.6,22,33.7,22L33.7,22z M24.3,13.7c3.2,0.1,6.1,1.8,7.7,4.6
			c0,0.4,0,0.8-0.1,1.3L31.6,20c-2.1-1.5-4.6-2.1-7.1-1.8c-2.1-0.1-4.2,0.6-5.9,2c-0.8,0.7-1.4,1.6-1.6,2.6l-2.5,1.1
			C15.4,17.9,19.6,13.6,24.3,13.7L24.3,13.7z M16.6,31.2c-0.2-0.5-0.7-0.9-1.3-0.9c-1.4,0-1.8-2.1-1.9-2.7c0.1-0.1,0.2-0.3,0.3-0.4
			l4.7-2c0.8-0.4,1.4-1.2,1.4-2c0.1-0.6,2.1-2.4,4.5-2.2h0.2c2.2-0.3,4.4,0.4,6.1,1.9c0.3,2.2,1.4,5.2,4.1,6.2
			c0,0.1-0.1,0.2-0.2,0.3c-0.2,0.6-0.8,1-1.4,1c-0.6,0-1.1,0.4-1.3,0.9c-0.7,1.7-1.8,3.3-3.2,4.5l-0.3,0.2c-0.1,0.1-0.2,0.1-0.3,0.2
			c-1.1,0.8-2.5,1.3-3.9,1.3c-1.4,0-2.7-0.5-3.8-1.3l-0.2-0.1L20,35.8C18.5,34.6,17.3,33,16.6,31.2L16.6,31.2z M30,42.5l-0.7,0.8
			l-1.8,0.6c-1.3,0.3-2.5,0.9-3.5,1.6c-1.7-0.1-3.2-0.9-4.2-2.2L19,42.3c0.9-0.7,1.5-1.6,1.8-2.7c1.1,0.5,2.3,0.7,3.5,0.8
			c1.3,0,2.5-0.3,3.7-0.8C28.4,40.8,29.1,41.8,30,42.5L30,42.5z M16.3,43.6l1.3,1.5c1,1.2,2.3,2.1,3.8,2.7c-0.6,0.7-1.1,1.4-1.5,2.2
			L15.1,44L16.3,43.6z M18.7,53c-0.3,1-0.4,2.1-0.4,3.2L17.6,61H12v-6.9c0-0.8-0.6-1.4-1.4-1.4c-0.8,0-1.4,0.6-1.4,1.4V61h-6
			l1.3-8.2c0-0.1,0-0.1,0-0.2c-0.1-3.1,2-5.9,5-6.7h0.1l2.7-0.9L18.7,53z M69,68.2V59c0-0.8-0.6-1.4-1.4-1.4s-1.4,0.6-1.4,1.4v9.2
			H31.5v-9.8c0-0.8-0.6-1.4-1.4-1.4s-1.4,0.6-1.4,1.4v9.8h-9.3l0.6-4.3l0.5-2.8l0.7-4.5c0-0.1,0-0.1,0-0.2v-0.3
			c0-1.2,0.3-2.4,0.8-3.6c0.6-1.6,1.7-2.9,3-4c1-0.8,2.2-1.4,3.4-1.7h0.1l2.5-0.8l1.5-0.5l0.3,0.4l1.8,2.2l10.8,13l2.2,2.7l0,0
			c0,0,0,0.1,0.1,0.1l0,0l0.1,0.1l0.1,0.1l0,0h0.1l0.2,0.1h0.1h0.1H49h0.1h0.1l0,0h0.1h0.1l0.1-0.1l0,0l0,0h0l0.1-0.1l0,0l0,0
			l2.5-2.8l5.8-6.5l1.6-1.8l4.1-4.6l1.9-2.1l0.1-0.1l3.3,1.3l0,0c0.8,0.4,1.6,0.7,2.5,0.9c1.8,1,3.2,2.5,4.1,4.4
			c0.6,1.4,1,2.9,1,4.4c0,0.1,0,0.1,0,0.2l0.6,3.8l0.5,2.9l0.7,4.3L69,68.2z M88.4,61v-6.4c0-0.8-0.6-1.4-1.4-1.4s-1.4,0.6-1.4,1.4
			V61H80l-0.7-4.2c0-1.3-0.2-2.5-0.6-3.7l6.8-7.7l2.2,0.8l0.2,0.1c3.1,0.8,5.2,3.6,5.1,6.8c0,0.1,0,0.2,0,0.2l1.3,7.7H88.4z"/>
	</g>
</g>
</svg>
