<?xml version="1.0" encoding="utf-8"?>
<!-- Generator: Adobe Illustrator 27.2.0, SVG Export Plug-In . SVG Version: 6.00 Build 0)  -->
<svg version="1.1" id="Слой_1" xmlns="http://www.w3.org/2000/svg" xmlns:xlink="http://www.w3.org/1999/xlink" x="0px" y="0px"
	 viewBox="0 0 81.6 81.6" style="enable-background:new 0 0 81.6 81.6;" xml:space="preserve">
<style type="text/css">
	.st0{fill:#D2232A;}
</style>
<g id="Слой_2_00000026886182939818285120000016966962600750930068_">
	<g id="Слой_1-2">
		<path class="st0" d="M68.9,25.3l4.6-7.1l-9.7-9.7l-7.1,4.6c-2.2-1.2-4.5-2.2-6.9-2.9L48,2H34.3l-1.7,8.2c-2.4,0.7-4.7,1.6-6.9,2.9
			l-7-4.6l-9.8,9.8l4.6,7c-1.2,2.2-2.2,4.5-2.9,6.9L2.4,34v13.7l8.2,1.7c0.7,2.4,1.6,4.7,2.9,6.9l-4.6,7l9.7,9.7l7-4.6
			c2.2,1.2,4.5,2.2,6.9,2.9l1.7,8.2H48l1.7-8.2c2.4-0.7,4.7-1.6,6.9-2.9l7.1,4.6l9.7-9.7l-4.6-7c1.2-2.2,2.2-4.5,2.9-6.9l8.3-1.7V34
			l-8.2-1.7C71.1,29.8,70.1,27.5,68.9,25.3z M78.2,46.3l-7.9,1.7l-0.1,0.5c-0.7,2.6-1.8,5.1-3.1,7.5l-0.3,0.5l4.4,6.8l-7.6,7.7
			l-6.8-4.4l-0.5,0.3c-2.3,1.4-4.8,2.4-7.5,3.1l-0.5,0.1l-1.7,7.9H35.7l-1.7-7.9l-0.5-0.1c-2.6-0.7-5.1-1.7-7.5-3.1l-0.5-0.3
			l-6.8,4.4l-7.7-7.7l4.4-6.8l-0.3-0.5c-1.4-2.3-2.4-4.8-3.1-7.5l-0.1-0.5l-7.9-1.7V35.4l7.9-1.7l0.1-0.5c0.7-2.6,1.7-5.1,3.1-7.5
			l0.3-0.5l-4.4-6.8l7.7-7.7l6.8,4.4l0.5-0.3c2.3-1.4,4.9-2.4,7.5-3.1l0.5-0.1l1.7-7.9h10.8l1.7,7.9l0.5,0.1
			c2.6,0.7,5.1,1.8,7.5,3.1l0.5,0.3l6.8-4.4l7.7,7.7l-4.4,6.8l0.3,0.5c1.4,2.3,2.4,4.8,3.1,7.5l0.1,0.5l7.9,1.7L78.2,46.3L78.2,46.3
			z"/>
		<path class="st0" d="M41.2,15.7c-4.7,0-9.2,1.3-13.2,3.7l0.9,1.5c11-6.8,25.4-3.4,32.2,7.6s3.4,25.4-7.6,32.2s-25.4,3.4-32.2-7.6
			c-6-9.7-4.1-22.4,4.5-29.9l-1.2-1.4C14.2,31,13.1,46.9,22.2,57.3s24.9,11.5,35.4,2.4s11.5-24.9,2.4-35.4
			C55.3,18.9,48.4,15.7,41.2,15.7z"/>
		<rect class="st0" width="18.1" height="1.8"/>
		<rect x="14.3" y="4.5" class="st0" width="1.8" height="1.8"/>
		<rect x="7.2" y="4.5" class="st0" width="1.8" height="1.8"/>
		<rect x="3.6" y="4.5" class="st0" width="1.8" height="1.8"/>
		<rect y="4.5" class="st0" width="1.8" height="1.8"/>
		<rect x="10.8" y="4.5" class="st0" width="1.8" height="1.8"/>
		<rect x="61.8" y="75.3" class="st0" width="18.1" height="1.8"/>
		<rect x="65.4" y="79.8" class="st0" width="1.8" height="1.8"/>
		<rect x="61.8" y="79.8" class="st0" width="1.8" height="1.8"/>
		<rect x="69" y="79.8" class="st0" width="1.8" height="1.8"/>
		<rect x="72.6" y="79.8" class="st0" width="1.8" height="1.8"/>
		<rect x="76.2" y="79.8" class="st0" width="1.8" height="1.8"/>
		<rect x="0.6" y="57.3" class="st0" width="1.8" height="1.8"/>
		<rect x="7.7" y="57.3" class="st0" width="1.3" height="1.8"/>
		<rect x="4.2" y="57.3" class="st0" width="1.8" height="1.8"/>
		<rect x="60.7" y="2.3" class="st0" width="1.8" height="1.8"/>
		<rect x="64.2" y="2.3" class="st0" width="1.8" height="1.8"/>
		<rect x="67.8" y="2.3" class="st0" width="1.3" height="1.8"/>
		<rect x="76.7" y="56.5" class="st0" width="1.8" height="1.8"/>
		<rect x="80.3" y="56.5" class="st0" width="1.3" height="1.8"/>
		<rect x="73.1" y="56.5" class="st0" width="1.8" height="1.8"/>
		<rect x="12.7" y="77.8" class="st0" width="8.5" height="1.8"/>
		<rect x="75.9" y="25.2" class="st0" width="5.7" height="1.8"/>
		<path class="st0" d="M23.9,51.3h34.5v-1.8h-2.2V31.9h-5.7v17.7h-2.3V37.6h-5.7v11.9h-2.3V30.4h-5.7v19.1h-2.3v-14h-5.7v14h-2.5
			V51.3z M52.3,33.7h2.2v15.9h-2.2V33.7z M44.3,39.4h2.2v10.1h-2.2L44.3,39.4z M36.3,32.2h2.2v17.3h-2.2L36.3,32.2z M28.3,37.3h2.1
			v12.2h-2.2L28.3,37.3z"/>
	</g>
</g>
</svg>
