<?xml version="1.0" encoding="UTF-8"?>
<svg id="_Слой_1" data-name="Слой 1" xmlns="http://www.w3.org/2000/svg" viewBox="0 0 60 60">
  <defs>
    <style>
      .cls-1 {
        fill: #7f8000;
      }
    </style>
  </defs>
  <polygon points="20.02 60 39.98 60 39.98 11.48 30 0 20.02 11.48 20.02 60"/>
  <circle class="cls-1" cx="30" cy="6.16" r="2.24"/>
  <path class="cls-1" d="m29.88,29.31l-6.15,4.19,6.15,3.93,6.38-3.93-6.38-4.19Zm-3.2,4.33l3.26-2.26,3.19,2.26-3.25,2.52-3.2-2.52Z"/>
  <polygon class="cls-1" points="20.02 38.13 25.16 41.21 29.88 38.13 35.1 41.21 39.98 38.13 39.98 41.61 35.1 44.58 29.88 41.35 25.16 44.86 20.02 41.63 20.02 38.13"/>
  <polygon class="cls-1" points="20.02 43.17 25.16 46.26 29.88 43.17 35.1 46.26 39.98 43.17 39.98 47.22 35.1 50.47 29.88 47.1 25.16 50.47 20.02 47.38 20.02 43.17"/>
</svg>