<?xml version="1.0" encoding="UTF-8"?>
<svg id="_Слой_1" data-name="Слой 1" xmlns="http://www.w3.org/2000/svg" viewBox="0 0 60 60">
  <defs>
    <style>
      .cls-1 {
        fill: #7f8000;
      }
    </style>
  </defs>
  <path class="cls-1" d="m32.24,6.15c0,.89-.52,1.66-1.27,2.02v51.85h-1.96V8.16c-.74-.36-1.26-1.13-1.26-2.01,0-1.24,1-2.24,2.24-2.24s2.24,1,2.24,2.24Z"/>
  <path d="m39.98,11.48v48.54h-9V8.17c.75-.36,1.27-1.13,1.27-2.02,0-1.24-1-2.24-2.24-2.24s-2.24,1-2.24,2.24c0,.89.51,1.65,1.26,2.01v51.85h-8.99V11.48L30-.01l9.98,11.49Z"/>
</svg>